<svg width="304" height="168" viewBox="0 0 304 168" fill="none" xmlns="http://www.w3.org/2000/svg">
<mask id="mask0_27_9908" style="mask-type:alpha" maskUnits="userSpaceOnUse" x="0" y="0" width="304" height="168">
<rect width="304" height="168" fill="#D9D9D9"/>
</mask>
<g mask="url(#mask0_27_9908)">
<path fill-rule="evenodd" clip-rule="evenodd" d="M6.20146 -4.63967L-0.579701 11.5415L-2.27529 15.4218L2.64087 16.8037L-4.36975 32.9676L16.3052 12.4786C14.4652 11.9622 11.61 11.1818 9.28424 10.5461C7.66532 10.1036 6.30306 9.73123 5.71769 9.56669C5.73047 9.37849 5.80548 9.25436 5.80548 9.25436C5.80548 9.25436 8.65861 9.81306 12.0116 10.1388L16.9399 -1.62124L6.20146 -4.63967Z" fill="#E6E8EC"/>
<path fill-rule="evenodd" clip-rule="evenodd" d="M-9.65475 51.7715L-16.4359 67.9526L-18.1315 71.833L-13.2153 73.2148L-20.226 89.3787L0.449005 68.8897C-1.39099 68.3733 -4.24616 67.5929 -6.57196 66.9572C-8.19088 66.5147 -9.55314 66.1424 -10.1385 65.9778C-10.1257 65.7896 -10.0507 65.6655 -10.0507 65.6655C-10.0507 65.6655 -7.19759 66.2242 -3.84462 66.55L1.08365 54.7899L-9.65475 51.7715Z" fill="#E6E8EC"/>
<path fill-rule="evenodd" clip-rule="evenodd" d="M41.4583 5.27098L34.6771 21.4521L32.9815 25.3325L37.8977 26.7143L30.8871 42.8783L51.562 22.3892C49.722 21.8728 46.8669 21.0924 44.5411 20.4567C42.9222 20.0142 41.5599 19.6419 40.9745 19.4773C40.9873 19.2891 41.0623 19.165 41.0623 19.165C41.0623 19.165 43.9154 19.7237 47.2684 20.0495L52.1967 8.2894L41.4583 5.27098Z" fill="#E6E8EC"/>
<path fill-rule="evenodd" clip-rule="evenodd" d="M25.6021 61.6821L18.8209 77.8633L17.1253 81.7436L22.0415 83.1255L15.0309 99.2894L35.7058 78.8004C33.8658 78.284 31.0107 77.5036 28.6849 76.8679C27.066 76.4254 25.7037 76.053 25.1183 75.8885C25.1311 75.7003 25.2061 75.5761 25.2061 75.5761C25.2061 75.5761 28.0592 76.1348 31.4122 76.4606L36.3405 64.7005L25.6021 61.6821Z" fill="#E6E8EC"/>
<path fill-rule="evenodd" clip-rule="evenodd" d="M9.74564 118.093L2.96449 134.274L1.2689 138.154L6.18506 139.536L-0.825565 155.7L19.8494 135.211C18.0094 134.695 15.1542 133.914 12.8284 133.279C11.2095 132.836 9.84725 132.464 9.26188 132.299C9.27466 132.111 9.34967 131.987 9.34967 131.987C9.34967 131.987 12.2028 132.545 15.5558 132.871L20.484 121.111L9.74564 118.093Z" fill="#E6E8EC"/>
<path fill-rule="evenodd" clip-rule="evenodd" d="M92.5718 -41.23L85.7907 -25.0488L84.0951 -21.1685L89.0112 -19.7866L82.0006 -3.62272L102.676 -24.1117C100.836 -24.6281 97.9804 -25.4086 95.6546 -26.0442C94.0357 -26.4868 92.6734 -26.8591 92.088 -27.0236C92.1008 -27.2118 92.1758 -27.336 92.1758 -27.336C92.1758 -27.336 95.029 -26.7773 98.3819 -26.4515L103.31 -38.2116L92.5718 -41.23Z" fill="#E6E8EC"/>
<path fill-rule="evenodd" clip-rule="evenodd" d="M76.7151 15.1811L69.934 31.3623L68.2384 35.2426L73.1545 36.6245L66.1439 52.7884L86.8189 32.2994C84.9789 31.783 82.1237 31.0026 79.7979 30.3669C78.179 29.9244 76.8167 29.552 76.2314 29.3875C76.2441 29.1993 76.3192 29.0752 76.3192 29.0752C76.3192 29.0752 79.1723 29.6339 82.5252 29.9596L87.4535 18.1996L76.7151 15.1811Z" fill="#E6E8EC"/>
<path fill-rule="evenodd" clip-rule="evenodd" d="M60.8592 71.5923L54.078 87.7734L52.3824 91.6538L57.2986 93.0356L50.288 109.2L70.9629 88.7105C69.1229 88.1941 66.2678 87.4137 63.942 86.778C62.323 86.3355 60.9608 85.9632 60.3754 85.7986C60.3882 85.6104 60.4632 85.4863 60.4632 85.4863C60.4632 85.4863 63.3163 86.045 66.6693 86.3708L71.5976 74.6107L60.8592 71.5923Z" fill="#E6E8EC"/>
<path fill-rule="evenodd" clip-rule="evenodd" d="M45.0025 128.003L38.2213 144.184L36.5257 148.064L41.4419 149.446L34.4313 165.61L55.1062 145.121C53.2662 144.605 50.4111 143.824 48.0853 143.189C46.4663 142.746 45.1041 142.374 44.5187 142.209C44.5315 142.021 44.6065 141.897 44.6065 141.897C44.6065 141.897 47.4596 142.456 50.8126 142.781L55.7409 131.021L45.0025 128.003Z" fill="#E6E8EC"/>
<path fill-rule="evenodd" clip-rule="evenodd" d="M127.829 -31.3194L121.048 -15.1382L119.353 -11.2579L124.269 -9.87599L117.258 6.28792L137.933 -14.2011C136.093 -14.7175 133.238 -15.4979 130.912 -16.1336C129.293 -16.5761 127.931 -16.9485 127.346 -17.113C127.358 -17.3012 127.433 -17.4253 127.433 -17.4253C127.433 -17.4253 130.287 -16.8666 133.64 -16.5408L138.568 -28.3009L127.829 -31.3194Z" fill="#E6E8EC"/>
<path fill-rule="evenodd" clip-rule="evenodd" d="M163.013 -21.4297L156.232 -5.24855L154.536 -1.36821L159.452 0.0136587L152.442 16.1776L173.116 -4.31146C171.276 -4.82785 168.421 -5.60826 166.096 -6.24395C164.477 -6.68646 163.114 -7.0588 162.529 -7.22335C162.542 -7.41155 162.617 -7.53568 162.617 -7.53568C162.617 -7.53568 165.47 -6.97698 168.823 -6.65119L173.751 -18.4113L163.013 -21.4297Z" fill="#E6E8EC"/>
<path fill-rule="evenodd" clip-rule="evenodd" d="M198.196 -11.5405L191.415 4.64061L189.719 8.52095L194.636 9.90282L187.625 26.0667L208.3 5.5777C206.46 5.06131 203.605 4.2809 201.279 3.64521C199.66 3.2027 198.298 2.83036 197.712 2.66581C197.725 2.47761 197.8 2.35348 197.8 2.35348C197.8 2.35348 200.653 2.91218 204.006 3.23797L208.934 -8.52212L198.196 -11.5405Z" fill="#E6E8EC"/>
<path fill-rule="evenodd" clip-rule="evenodd" d="M233.379 -1.6509L226.598 14.5303L224.903 18.4106L229.819 19.7925L222.808 35.9564L243.483 15.4674C241.643 14.951 238.788 14.1705 236.462 13.5349C234.843 13.0923 233.481 12.72 232.896 12.5555C232.908 12.3673 232.983 12.2431 232.983 12.2431C232.983 12.2431 235.837 12.8018 239.19 13.1276L244.118 1.36753L233.379 -1.6509Z" fill="#E6E8EC"/>
<path fill-rule="evenodd" clip-rule="evenodd" d="M268.563 8.23875L261.782 24.4199L260.086 28.3002L265.002 29.6821L257.992 45.846L278.667 25.357C276.827 24.8406 273.971 24.0602 271.646 23.4245C270.027 22.982 268.664 22.6097 268.079 22.4451C268.092 22.2569 268.167 22.1328 268.167 22.1328C268.167 22.1328 271.02 22.6915 274.373 23.0173L279.301 11.2572L268.563 8.23875Z" fill="#E6E8EC"/>
<path fill-rule="evenodd" clip-rule="evenodd" d="M303.746 18.1284L296.965 34.3096L295.27 38.1899L300.186 39.5718L293.175 55.7357L313.85 35.2466C312.01 34.7303 309.155 33.9498 306.829 33.3142C305.21 32.8716 303.848 32.4993 303.263 32.3348C303.275 32.1466 303.35 32.0224 303.35 32.0224C303.35 32.0224 306.204 32.5811 309.556 32.9069L314.485 21.1468L303.746 18.1284Z" fill="#E6E8EC"/>
<path fill-rule="evenodd" clip-rule="evenodd" d="M111.973 25.0918L105.192 41.2729L103.496 45.1533L108.412 46.5351L101.402 62.6991L122.077 42.21C120.237 41.6936 117.382 40.9132 115.056 40.2775C113.437 39.835 112.075 39.4627 111.489 39.2981C111.502 39.1099 111.577 38.9858 111.577 38.9858C111.577 38.9858 114.43 39.5445 117.783 39.8703L122.711 28.1102L111.973 25.0918Z" fill="#E6E8EC"/>
<path fill-rule="evenodd" clip-rule="evenodd" d="M147.156 34.9814L140.375 51.1626L138.68 55.0429L143.596 56.4248L136.585 72.5887L157.26 52.0997C155.42 51.5833 152.565 50.8029 150.239 50.1672C148.62 49.7247 147.258 49.3523 146.673 49.1878C146.685 48.9996 146.76 48.8755 146.76 48.8755C146.76 48.8755 149.613 49.4342 152.966 49.7599L157.895 37.9999L147.156 34.9814Z" fill="#E6E8EC"/>
<path fill-rule="evenodd" clip-rule="evenodd" d="M182.34 44.8711L175.558 61.0522L173.863 64.9326L178.779 66.3144L171.768 82.4784L192.443 61.9893C190.603 61.4729 187.748 60.6925 185.422 60.0568C183.804 59.6143 182.441 59.242 181.856 59.0774C181.869 58.8892 181.944 58.7651 181.944 58.7651C181.944 58.7651 184.797 59.3238 188.15 59.6496L193.078 47.8895L182.34 44.8711Z" fill="#E6E8EC"/>
<path fill-rule="evenodd" clip-rule="evenodd" d="M217.523 54.7607L210.742 70.9419L209.046 74.8222L213.962 76.2041L206.952 92.368L227.627 71.879C225.787 71.3626 222.932 70.5822 220.606 69.9465C218.987 69.504 217.625 69.1316 217.039 68.9671C217.052 68.7789 217.127 68.6548 217.127 68.6548C217.127 68.6548 219.98 69.2135 223.333 69.5392L228.261 57.7792L217.523 54.7607Z" fill="#E6E8EC"/>
<path fill-rule="evenodd" clip-rule="evenodd" d="M252.706 64.6504L245.925 80.8315L244.23 84.7119L249.146 86.0937L242.135 102.258L262.81 81.7686C260.97 81.2522 258.115 80.4718 255.789 79.8361C254.17 79.3936 252.808 79.0213 252.223 78.8567C252.235 78.6685 252.31 78.5444 252.31 78.5444C252.31 78.5444 255.163 79.1031 258.516 79.4289L263.445 67.6688L252.706 64.6504Z" fill="#E6E8EC"/>
<path fill-rule="evenodd" clip-rule="evenodd" d="M287.89 74.54L281.109 90.7212L279.413 94.6015L284.329 95.9834L277.318 112.147L297.993 91.6583C296.153 91.1419 293.298 90.3615 290.972 89.7258C289.354 89.2833 287.991 88.9109 287.406 88.7464C287.419 88.5582 287.494 88.434 287.494 88.434C287.494 88.434 290.347 88.9928 293.7 89.3185L298.628 77.5584L287.89 74.54Z" fill="#E6E8EC"/>
<path fill-rule="evenodd" clip-rule="evenodd" d="M96.1165 81.5024L89.3353 97.6836L87.6397 101.564L92.5559 102.946L85.5453 119.11L106.22 98.6207C104.38 98.1043 101.525 97.3239 99.1993 96.6882C97.5804 96.2457 96.2181 95.8733 95.6327 95.7088C95.6455 95.5206 95.7205 95.3964 95.7205 95.3964C95.7205 95.3964 98.5737 95.9552 101.927 96.2809L106.855 84.5208L96.1165 81.5024Z" fill="#E6E8EC"/>
<path fill-rule="evenodd" clip-rule="evenodd" d="M131.3 91.3921L124.519 107.573L122.823 111.454L127.739 112.835L120.729 128.999L141.404 108.51C139.564 107.994 136.708 107.214 134.383 106.578C132.764 106.135 131.401 105.763 130.816 105.598C130.829 105.41 130.904 105.286 130.904 105.286C130.904 105.286 133.757 105.845 137.11 106.171L142.038 94.4105L131.3 91.3921Z" fill="#E6E8EC"/>
<path fill-rule="evenodd" clip-rule="evenodd" d="M166.483 101.282L159.702 117.463L158.006 121.343L162.923 122.725L155.912 138.889L176.587 118.4C174.747 117.884 171.892 117.103 169.566 116.467C167.947 116.025 166.585 115.653 165.999 115.488C166.012 115.3 166.087 115.176 166.087 115.176C166.087 115.176 168.94 115.734 172.293 116.06L177.222 104.3L166.483 101.282Z" fill="#E6E8EC"/>
<path fill-rule="evenodd" clip-rule="evenodd" d="M201.667 111.171L194.886 127.353L193.19 131.233L198.106 132.615L191.096 148.779L211.771 128.29C209.931 127.773 207.075 126.993 204.75 126.357C203.131 125.915 201.768 125.542 201.183 125.378C201.196 125.19 201.271 125.065 201.271 125.065C201.271 125.065 204.124 125.624 207.477 125.95L212.405 114.19L201.667 111.171Z" fill="#E6E8EC"/>
<path fill-rule="evenodd" clip-rule="evenodd" d="M236.85 121.061L230.069 137.242L228.373 141.123L233.29 142.504L226.279 158.668L246.954 138.179C245.114 137.663 242.259 136.882 239.933 136.247C238.314 135.804 236.952 135.432 236.366 135.267C236.379 135.079 236.454 134.955 236.454 134.955C236.454 134.955 239.307 135.514 242.66 135.84L247.589 124.079L236.85 121.061Z" fill="#E6E8EC"/>
<path fill-rule="evenodd" clip-rule="evenodd" d="M272.033 130.951L265.252 147.132L263.557 151.012L268.473 152.394L261.462 168.558L282.137 148.069C280.297 147.553 277.442 146.772 275.116 146.136C273.497 145.694 272.135 145.322 271.55 145.157C271.563 144.969 271.638 144.845 271.638 144.845C271.638 144.845 274.491 145.403 277.844 145.729L282.772 133.969L272.033 130.951Z" fill="#E6E8EC"/>
<path fill-rule="evenodd" clip-rule="evenodd" d="M307.217 140.84L300.436 157.021L298.74 160.902L303.656 162.284L296.646 178.448L317.321 157.959C315.481 157.442 312.625 156.662 310.3 156.026C308.681 155.584 307.318 155.211 306.733 155.047C306.746 154.858 306.821 154.734 306.821 154.734C306.821 154.734 309.674 155.293 313.027 155.619L317.955 143.859L307.217 140.84Z" fill="#E6E8EC"/>
<path fill-rule="evenodd" clip-rule="evenodd" d="M80.26 137.914L73.4789 154.095L71.7833 157.975L76.6995 159.357L69.6888 175.521L90.3638 155.032C88.5238 154.515 85.6686 153.735 83.3428 153.099C81.7239 152.657 80.3617 152.284 79.7763 152.12C79.7891 151.932 79.8641 151.808 79.8641 151.808C79.8641 151.808 82.7172 152.366 86.0702 152.692L90.9984 140.932L80.26 137.914Z" fill="#E6E8EC"/>
<path fill-rule="evenodd" clip-rule="evenodd" d="M115.443 147.803L108.662 163.984L106.967 167.865L111.883 169.247L104.872 185.41L125.547 164.921C123.707 164.405 120.852 163.625 118.526 162.989C116.907 162.546 115.545 162.174 114.96 162.01C114.972 161.821 115.047 161.697 115.047 161.697C115.047 161.697 117.901 162.256 121.254 162.582L126.182 150.822L115.443 147.803Z" fill="#E6E8EC"/>
<path fill-rule="evenodd" clip-rule="evenodd" d="M150.627 157.693L143.846 173.874L142.15 177.754L147.066 179.136L140.056 195.3L160.731 174.811C158.891 174.295 156.036 173.514 153.71 172.879C152.091 172.436 150.729 172.064 150.143 171.899C150.156 171.711 150.231 171.587 150.231 171.587C150.231 171.587 153.084 172.146 156.437 172.471L161.365 160.711L150.627 157.693Z" fill="#E6E8EC"/>
<path fill-rule="evenodd" clip-rule="evenodd" d="M185.81 167.582L179.029 183.764L177.334 187.644L182.25 189.026L175.239 205.19L195.914 184.701C194.074 184.184 191.219 183.404 188.893 182.768C187.274 182.326 185.912 181.953 185.327 181.789C185.339 181.601 185.414 181.477 185.414 181.477C185.414 181.477 188.267 182.035 191.62 182.361L196.549 170.601L185.81 167.582Z" fill="#E6E8EC"/>
</g>
</svg>
