<svg width="20" height="20" viewBox="0 0 20 20" fill="none" xmlns="http://www.w3.org/2000/svg">
<path d="M0.832031 4.16663H19.1654" stroke="white" stroke-width="1.5" stroke-linecap="round" stroke-linejoin="round"/>
<path d="M11.875 0.833313H8.125C7.79348 0.833313 7.47554 0.965009 7.24112 1.19943C7.0067 1.43385 6.875 1.75179 6.875 2.08331V4.16665H13.125V2.08331C13.125 1.75179 12.9933 1.43385 12.7589 1.19943C12.5245 0.965009 12.2065 0.833313 11.875 0.833313Z" stroke="white" stroke-width="1.5" stroke-linecap="round" stroke-linejoin="round"/>
<path d="M8.125 14.7916V8.54163" stroke="white" stroke-width="1.5" stroke-linecap="round" stroke-linejoin="round"/>
<path d="M11.875 14.7916V8.54163" stroke="white" stroke-width="1.5" stroke-linecap="round" stroke-linejoin="round"/>
<path d="M15.7167 18.0166C15.6935 18.3298 15.5525 18.6226 15.3221 18.8359C15.0917 19.0493 14.789 19.1675 14.475 19.1666H5.525C5.21097 19.1675 4.90828 19.0493 4.67789 18.8359C4.4475 18.6226 4.30652 18.3298 4.28333 18.0166L3.125 4.16663H16.875L15.7167 18.0166Z" stroke="white" stroke-width="1.5" stroke-linecap="round" stroke-linejoin="round"/>
</svg>
