<svg width="24" height="24" viewBox="0 0 24 24" fill="none" xmlns="http://www.w3.org/2000/svg">
<path d="M11.9219 22C17.4219 22 21.9219 17.5 21.9219 12C21.9219 6.5 17.4219 2 11.9219 2C6.42188 2 1.92188 6.5 1.92188 12C1.92187 17.5 6.42188 22 11.9219 22Z" fill="#FF4747"/>
<path d="M11.9219 23C17.9742 23 22.9219 18.0523 22.9219 12H20.9219C20.9219 16.9477 16.8696 21 11.9219 21V23ZM22.9219 12C22.9219 5.94772 17.9742 1 11.9219 1V3C16.8696 3 20.9219 7.05228 20.9219 12H22.9219ZM11.9219 1C5.86959 1 0.921875 5.94772 0.921875 12H2.92188C2.92188 7.05228 6.97416 3 11.9219 3V1ZM0.921875 12C0.921875 18.0523 5.86959 23 11.9219 23V21C6.97416 21 2.92188 16.9477 2.92188 12H0.921875Z" fill="white"/>
<path d="M7.92188 12H15.9219" stroke="white" stroke-width="1.5" stroke-linecap="round" stroke-linejoin="round"/>
</svg>
