<svg width="36" height="36" viewBox="0 0 36 36" fill="none" xmlns="http://www.w3.org/2000/svg">
<path d="M29.4777 12.2082L15.8629 26.4475C15.5268 26.7991 15.0705 27 14.5903 27C14.1101 27 13.6538 26.7991 13.3177 26.4475L6.52226 19.3404C5.82591 18.6121 5.82591 17.4067 6.52226 16.6784C7.21861 15.9501 8.37119 15.9501 9.06753 16.6784L14.5903 22.4545L26.9325 9.54622C27.6288 8.81793 28.7814 8.81793 29.4777 9.54622C30.1741 10.2745 30.1741 11.4548 29.4777 12.2082Z" fill="#23262F"/>
<path d="M29.4777 12.2082L15.8629 26.4475C15.5268 26.7991 15.0705 27 14.5903 27C14.1101 27 13.6538 26.7991 13.3177 26.4475L6.52226 19.3404C5.82591 18.6121 5.82591 17.4067 6.52226 16.6784C7.21861 15.9501 8.37119 15.9501 9.06753 16.6784L14.5903 22.4545L26.9325 9.54622C27.6288 8.81793 28.7814 8.81793 29.4777 9.54622C30.1741 10.2745 30.1741 11.4548 29.4777 12.2082Z" fill="#23262F"/>
</svg>
