<svg width="24" height="24" viewBox="0 0 24 24" fill="none" xmlns="http://www.w3.org/2000/svg">
<path d="M9 15.285V15C9 14.2044 9.31607 13.4413 9.87868 12.8787C10.4413 12.3161 11.2044 12 12 12C12.7956 12 13.5587 12.3161 14.1213 12.8787C14.6839 13.4413 15 14.2044 15 15V15.285" stroke="#777E91" stroke-linecap="round" stroke-linejoin="round"/>
<path d="M14.2539 5.25L12.0039 12" stroke="#777E91" stroke-linecap="round" stroke-linejoin="round"/>
<path d="M21.4323 18.135C18.7093 16.0998 15.4009 15 12.0013 15C8.60172 15 5.29335 16.0998 2.57031 18.135" stroke="#777E91" stroke-linecap="round" stroke-linejoin="round"/>
<path d="M12 23.25C18.2132 23.25 23.25 18.2132 23.25 12C23.25 5.7868 18.2132 0.75 12 0.75C5.7868 0.75 0.75 5.7868 0.75 12C0.75 18.2132 5.7868 23.25 12 23.25Z" stroke="#777E91" stroke-linecap="round" stroke-linejoin="round"/>
<path d="M4.875 12C4.6679 12 4.5 11.8321 4.5 11.625C4.5 11.4179 4.6679 11.25 4.875 11.25" stroke="#777E91"/>
<path d="M4.875 12C5.08211 12 5.25 11.8321 5.25 11.625C5.25 11.4179 5.08211 11.25 4.875 11.25" stroke="#777E91"/>
<path d="M6.375 8.25C6.1679 8.25 6 8.08211 6 7.875C6 7.66789 6.1679 7.5 6.375 7.5" stroke="#777E91"/>
<path d="M6.375 8.25C6.58211 8.25 6.75 8.08211 6.75 7.875C6.75 7.66789 6.58211 7.5 6.375 7.5" stroke="#777E91"/>
<path d="M9.375 5.25C9.1679 5.25 9 5.08211 9 4.875C9 4.66789 9.1679 4.5 9.375 4.5" stroke="#777E91"/>
<path d="M9.375 5.25C9.58211 5.25 9.75 5.08211 9.75 4.875C9.75 4.66789 9.58211 4.5 9.375 4.5" stroke="#777E91"/>
<path d="M17.625 8.25C17.4179 8.25 17.25 8.08211 17.25 7.875C17.25 7.66789 17.4179 7.5 17.625 7.5" stroke="#777E91"/>
<path d="M17.625 8.25C17.8321 8.25 18 8.08211 18 7.875C18 7.66789 17.8321 7.5 17.625 7.5" stroke="#777E91"/>
<path d="M19.1289 11.9927C18.9217 11.9927 18.7539 11.8248 18.7539 11.6177C18.7539 11.4106 18.9217 11.2427 19.1289 11.2427" stroke="#777E91"/>
<path d="M19.1289 11.9927C19.336 11.9927 19.5039 11.8248 19.5039 11.6177C19.5039 11.4106 19.336 11.2427 19.1289 11.2427" stroke="#777E91"/>
</svg>
