<svg width="12" height="14" viewBox="0 0 12 14" fill="none" xmlns="http://www.w3.org/2000/svg">
<path d="M3.83203 0.333374C3.06847 0.333374 2.45349 0.924977 2.36589 1.66671H1.4987C0.86038 1.66671 0.332031 2.19506 0.332031 2.83337V4.83337C0.332031 6.02402 1.30805 7.00004 2.4987 7.00004H2.56836C3.01729 8.37416 4.1985 9.36371 5.66536 9.56515V10.6667H4.4987C3.30805 10.6667 2.33203 11.6427 2.33203 12.8334V13.1667C2.33204 13.2993 2.38473 13.4265 2.47849 13.5202C2.57226 13.614 2.69943 13.6667 2.83203 13.6667H9.4987C9.6313 13.6667 9.75847 13.614 9.85224 13.5202C9.946 13.4265 9.99868 13.2993 9.9987 13.1667V12.8334C9.9987 11.6427 9.02268 10.6667 7.83203 10.6667H6.66536V9.56515C8.13223 9.36371 9.31344 8.37416 9.76237 7.00004H9.83203C11.0227 7.00004 11.9987 6.02402 11.9987 4.83337V2.83337C11.9987 2.19506 11.4703 1.66671 10.832 1.66671H9.96484C9.87724 0.924977 9.26226 0.333374 8.4987 0.333374H3.83203ZM3.83203 1.33337H8.4987C8.78086 1.33337 8.9987 1.55121 8.9987 1.83337V2.08468C8.98988 2.13835 8.98988 2.19311 8.9987 2.24679V5.83337C8.9987 7.39399 7.75061 8.64463 6.19401 8.66085C6.17493 8.65975 6.1558 8.65975 6.13672 8.66085C4.58012 8.64463 3.33203 7.39399 3.33203 5.83337V2.24874C3.34085 2.19506 3.34085 2.14031 3.33203 2.08663V1.83337C3.33203 1.55121 3.54987 1.33337 3.83203 1.33337ZM1.4987 2.66671H2.33203V5.83337C2.33203 5.88272 2.35816 5.92379 2.36003 5.9727C1.78012 5.90224 1.33203 5.43404 1.33203 4.83337V2.83337C1.33203 2.73503 1.40035 2.66671 1.4987 2.66671ZM9.9987 2.66671H10.832C10.9304 2.66671 10.9987 2.73503 10.9987 2.83337V4.83337C10.9987 5.43404 10.5506 5.90224 9.9707 5.9727C9.97257 5.92379 9.9987 5.88272 9.9987 5.83337V2.66671ZM4.4987 11.6667H7.83203C8.42271 11.6667 8.88268 12.1011 8.9655 12.6667H3.36523C3.44805 12.1011 3.90802 11.6667 4.4987 11.6667Z" fill="#28CA6C"/>
</svg>
