<svg width="24" height="24" viewBox="0 0 24 24" fill="none" xmlns="http://www.w3.org/2000/svg">
<path d="M8.25 3.75H6.75C5.92157 3.75 5.25 4.42157 5.25 5.25V18.75C5.25 19.5784 5.92157 20.25 6.75 20.25H8.25C9.07843 20.25 9.75 19.5784 9.75 18.75V5.25C9.75 4.42157 9.07843 3.75 8.25 3.75Z" stroke="#E94359" stroke-width="1.5" stroke-linecap="round" stroke-linejoin="round"/>
<path d="M17.25 3.75H15.75C14.9216 3.75 14.25 4.42157 14.25 5.25V18.75C14.25 19.5784 14.9216 20.25 15.75 20.25H17.25C18.0784 20.25 18.75 19.5784 18.75 18.75V5.25C18.75 4.42157 18.0784 3.75 17.25 3.75Z" stroke="#E94359" stroke-width="1.5" stroke-linecap="round" stroke-linejoin="round"/>
</svg>
