<svg width="12" height="14" viewBox="0 0 12 14" fill="none" xmlns="http://www.w3.org/2000/svg">
<path d="M3.5 1.5H2.5C1.94772 1.5 1.5 1.94772 1.5 2.5V11.5C1.5 12.0523 1.94772 12.5 2.5 12.5H3.5C4.05228 12.5 4.5 12.0523 4.5 11.5V2.5C4.5 1.94772 4.05228 1.5 3.5 1.5Z" stroke="#F4F5F6" stroke-width="1.5" stroke-linecap="round" stroke-linejoin="round"/>
<path d="M9.5 1.5H8.5C7.94772 1.5 7.5 1.94772 7.5 2.5V11.5C7.5 12.0523 7.94772 12.5 8.5 12.5H9.5C10.0523 12.5 10.5 12.0523 10.5 11.5V2.5C10.5 1.94772 10.0523 1.5 9.5 1.5Z" stroke="#F7F9FB" stroke-width="1.5" stroke-linecap="round" stroke-linejoin="round"/>
</svg>
