<svg width="24" height="24" viewBox="0 0 24 24" fill="none" xmlns="http://www.w3.org/2000/svg">
<path fill-rule="evenodd" clip-rule="evenodd" d="M15.0416 3.38729C13.2958 3.04003 11.4862 3.21825 9.84163 3.89944C8.1971 4.58063 6.79149 5.73419 5.80256 7.21423C4.97544 8.4521 4.47087 9.87185 4.32789 11.3448L2.81178 9.82865C2.56073 9.5776 2.1537 9.5776 1.90264 9.82865C1.65159 10.0797 1.65159 10.4867 1.90264 10.7378L4.44111 13.2763C4.55901 13.4133 4.73369 13.5001 4.92864 13.5001C5.12359 13.5001 5.29828 13.4133 5.41617 13.2763L7.95464 10.7378C8.20569 10.4867 8.20569 10.0797 7.95464 9.82865C7.70359 9.5776 7.29655 9.5776 7.0455 9.82865L5.63315 11.241C5.78333 10.0602 6.2054 8.92555 6.87159 7.92853C7.71925 6.65992 8.92405 5.67116 10.3337 5.08729C11.7433 4.50341 13.2943 4.35064 14.7908 4.6483C16.2872 4.94596 17.6617 5.68067 18.7406 6.75954C19.8195 7.8384 20.5542 9.21295 20.8518 10.7094C21.1495 12.2058 20.9967 13.7569 20.4129 15.1665C19.829 16.5761 18.8402 17.7809 17.5716 18.6286C16.303 19.4762 14.8115 19.9286 13.2858 19.9286C12.9307 19.9286 12.6429 20.2165 12.6429 20.5715C12.6429 20.9265 12.9307 21.2144 13.2858 21.2144C15.0658 21.2144 16.8059 20.6865 18.2859 19.6976C19.766 18.7087 20.9195 17.303 21.6007 15.6585C22.2819 14.014 22.4601 12.2044 22.1129 10.4585C21.7656 8.71272 20.9084 7.10907 19.6497 5.8504C18.3911 4.59173 16.7874 3.73456 15.0416 3.38729Z" fill="#E94359"/>
</svg>
