<svg width="16" height="16" viewBox="0 0 16 16" fill="none" xmlns="http://www.w3.org/2000/svg">
<path fill-rule="evenodd" clip-rule="evenodd" d="M10.0279 2.25836C8.86401 2.02685 7.65761 2.14567 6.56125 2.59979C5.46489 3.05392 4.52782 3.82295 3.86853 4.80965C3.31712 5.63489 2.98074 6.5814 2.88542 7.56334L1.87468 6.5526C1.70732 6.38523 1.43596 6.38523 1.26859 6.5526C1.10122 6.71996 1.10122 6.99132 1.26859 7.15869L2.96091 8.851C3.0395 8.94236 3.15596 9.00021 3.28592 9.00021C3.41589 9.00021 3.53234 8.94236 3.61094 8.851L5.30325 7.15869C5.47062 6.99132 5.47062 6.71996 5.30325 6.5526C5.13589 6.38523 4.86453 6.38523 4.69716 6.5526L3.75559 7.49417C3.85572 6.70698 4.1371 5.95053 4.58122 5.28585C5.14633 4.44011 5.94953 3.78094 6.88927 3.39169C7.829 3.00244 8.86306 2.90059 9.86067 3.09903C10.8583 3.29747 11.7747 3.78728 12.4939 4.50652C13.2131 5.22576 13.703 6.14213 13.9014 7.13975C14.0998 8.13736 13.998 9.17142 13.6087 10.1112C13.2195 11.0509 12.5603 11.8541 11.7146 12.4192C10.8688 12.9843 9.87451 13.2859 8.85735 13.2859C8.62066 13.2859 8.42878 13.4778 8.42878 13.7145C8.42878 13.9512 8.62066 14.1431 8.85735 14.1431C10.044 14.1431 11.2041 13.7912 12.1908 13.1319C13.1775 12.4726 13.9465 11.5355 14.4006 10.4392C14.8548 9.34281 14.9736 8.13641 14.7421 6.97253C14.5106 5.80864 13.9391 4.73954 13.1 3.90043C12.2609 3.06131 11.1918 2.48987 10.0279 2.25836Z" fill="white"/>
</svg>
