<svg width="24" height="24" viewBox="0 0 24 24" fill="none" xmlns="http://www.w3.org/2000/svg">
<mask id="path-1-outside-1_20_17660" maskUnits="userSpaceOnUse" x="0" y="0" width="24" height="24" fill="black">
<rect fill="white" width="24" height="24"/>
<path d="M12 2C6.49 2 2 6.49 2 12C2 17.51 6.49 22 12 22C17.51 22 22 17.51 22 12C22 6.49 17.51 2 12 2Z"/>
</mask>
<path d="M12 2C6.49 2 2 6.49 2 12C2 17.51 6.49 22 12 22C17.51 22 22 17.51 22 12C22 6.49 17.51 2 12 2Z" fill="#FA7034"/>
<path d="M16.78 9.7L17.4871 10.4071L17.4931 10.4011L17.499 10.395L16.78 9.7ZM11.11 15.37L10.4029 14.6629L11.11 15.37ZM10.05 15.37L10.7571 14.6629L10.05 15.37ZM7.22 12.54L6.51289 13.2471L7.22 12.54ZM16.0729 8.99289L10.4029 14.6629L11.8171 16.0771L17.4871 10.4071L16.0729 8.99289ZM10.4029 14.6629C10.4483 14.6175 10.5118 14.59 10.58 14.59V16.59C11.0482 16.59 11.4917 16.4025 11.8171 16.0771L10.4029 14.6629ZM10.58 14.59C10.6482 14.59 10.7117 14.6175 10.7571 14.6629L9.34289 16.0771C9.66829 16.4025 10.1118 16.59 10.58 16.59V14.59ZM10.7571 14.6629L7.92711 11.8329L6.51289 13.2471L9.34289 16.0771L10.7571 14.6629ZM7.92711 11.8329C7.98072 11.8865 8.0025 11.9534 8.0025 12.01C8.0025 12.0666 7.98072 12.1335 7.92711 12.1871L6.51289 10.7729C5.83237 11.4534 5.83237 12.5666 6.51289 13.2471L7.92711 11.8329ZM7.92711 12.1871C7.87349 12.2407 7.80663 12.2625 7.75 12.2625C7.69337 12.2625 7.62651 12.2407 7.57289 12.1871L8.98711 10.7729C8.30658 10.0924 7.19342 10.0924 6.51289 10.7729L7.92711 12.1871ZM7.57289 12.1871L9.87289 14.4871L11.2871 13.0729L8.98711 10.7729L7.57289 12.1871ZM16.0729 9.34711C15.9659 9.2401 15.9828 9.08587 16.061 9.00498L17.499 10.395C18.1572 9.71413 18.1741 8.6199 17.4871 7.93289L16.0729 9.34711ZM12 0C5.38543 0 0 5.38543 0 12H4C4 7.59457 7.59457 4 12 4V0ZM0 12C0 18.6146 5.38543 24 12 24V20C7.59457 20 4 16.4054 4 12H0ZM12 24C18.6146 24 24 18.6146 24 12H20C20 16.4054 16.4054 20 12 20V24ZM24 12C24 5.38543 18.6146 0 12 0V4C16.4054 4 20 7.59457 20 12H24Z" fill="white" mask="url(#path-1-outside-1_20_17660)"/>
<path d="M17 12C17 14.76 14.76 17 12 17C9.24 17 7.555 14.22 7.555 14.22M7.555 14.22H9.815M7.555 14.22V16.72M7 12C7 9.24 9.22 7 12 7C15.335 7 17 9.78 17 9.78M17 9.78V7.28M17 9.78H14.78" stroke="white" stroke-linecap="round" stroke-linejoin="round"/>
</svg>
