<svg width="20" height="20" viewBox="0 0 20 20" fill="none" xmlns="http://www.w3.org/2000/svg">
<path d="M17.3125 15.0625H9.4375L4.9375 18.4375V15.0625H2.6875C2.38913 15.0625 2.10298 14.944 1.892 14.733C1.68103 14.522 1.5625 14.2359 1.5625 13.9375V2.6875C1.5625 2.38913 1.68103 2.10298 1.892 1.892C2.10298 1.68103 2.38913 1.5625 2.6875 1.5625H17.3125C17.6109 1.5625 17.897 1.68103 18.108 1.892C18.319 2.10298 18.4375 2.38913 18.4375 2.6875V13.9375C18.4375 14.2359 18.319 14.522 18.108 14.733C17.897 14.944 17.6109 15.0625 17.3125 15.0625Z" stroke="#B1B5C4" stroke-width="1.5" stroke-linecap="round" stroke-linejoin="round"/>
<path d="M4.9375 6.625H15.0625" stroke="#B1B5C4" stroke-width="1.5" stroke-linecap="round" stroke-linejoin="round"/>
<path d="M4.9375 10H12.8125" stroke="#B1B5C4" stroke-width="1.5" stroke-linecap="round" stroke-linejoin="round"/>
</svg>
