<svg width="20" height="20" viewBox="0 0 20 20" fill="none" xmlns="http://www.w3.org/2000/svg">
<path d="M10 18.4375C8.33122 18.4375 6.69992 17.9427 5.31238 17.0155C3.92484 16.0884 2.84338 14.7706 2.20477 13.2289C1.56616 11.6871 1.39907 9.99064 1.72463 8.35393C2.05019 6.71721 2.85378 5.2138 4.03379 4.03379C5.2138 2.85378 6.71721 2.05019 8.35393 1.72463C9.99064 1.39907 11.6871 1.56616 13.2289 2.20477C14.7706 2.84338 16.0884 3.92484 17.0155 5.31238C17.9427 6.69992 18.4375 8.33122 18.4375 10" stroke="#B1B5C4" stroke-width="1.5" stroke-linecap="round" stroke-linejoin="round"/>
<path d="M4.74219 16.6L5.49969 12.8125H6.60969" stroke="#B1B5C4" stroke-width="1.5" stroke-linecap="round" stroke-linejoin="round"/>
<path d="M7.1875 10.555L6.835 9.1675C6.77605 8.92358 6.63672 8.7066 6.43945 8.5515C6.24218 8.3964 5.99844 8.31222 5.7475 8.3125H1.75" stroke="#B1B5C4" stroke-width="1.5" stroke-linecap="round" stroke-linejoin="round"/>
<path d="M16.7484 4.9375H13.6884C13.4375 4.93722 13.1938 5.0214 12.9965 5.1765C12.7992 5.3316 12.6599 5.54858 12.6009 5.7925L12.3984 6.5875" stroke="#B1B5C4" stroke-width="1.5" stroke-linecap="round" stroke-linejoin="round"/>
<path d="M12.8203 16.75C14.9949 16.75 16.7578 14.9871 16.7578 12.8125C16.7578 10.6379 14.9949 8.875 12.8203 8.875C10.6457 8.875 8.88281 10.6379 8.88281 12.8125C8.88281 14.9871 10.6457 16.75 12.8203 16.75Z" stroke="#B1B5C4" stroke-width="1.5" stroke-linecap="round" stroke-linejoin="round"/>
<path d="M18.4369 18.4377L15.6094 15.5952" stroke="#B1B5C4" stroke-width="1.5" stroke-linecap="round" stroke-linejoin="round"/>
</svg>
