<svg width="20" height="18" viewBox="0 0 20 18" fill="none" xmlns="http://www.w3.org/2000/svg">
<path d="M9.99956 17.1V4.04024C9.99956 4.04024 8.15831 1.99499 1.95056 1.91249C1.89939 1.91199 1.84863 1.92168 1.80125 1.94099C1.75386 1.96031 1.7108 1.98886 1.67456 2.02499C1.6015 2.09887 1.56053 2.19859 1.56056 2.30249V14.583C1.55973 14.6841 1.5985 14.7815 1.66858 14.8544C1.73867 14.9273 1.83449 14.9699 1.93556 14.973C8.15681 15.0532 9.99956 17.1 9.99956 17.1Z" stroke="#B1B5C4" stroke-width="1.5" stroke-linecap="round" stroke-linejoin="round"/>
<path d="M7.74969 8.89129C6.47338 8.462 5.14783 8.19613 3.80469 8.10004" stroke="#B1B5C4" stroke-width="1.5" stroke-linecap="round" stroke-linejoin="round"/>
<path d="M7.74969 12.0375C6.4731 11.6099 5.14761 11.3453 3.80469 11.25" stroke="#B1B5C4" stroke-width="1.5" stroke-linecap="round" stroke-linejoin="round"/>
<path d="M12.25 8.89129C13.5263 8.462 14.8519 8.19613 16.195 8.10004" stroke="#B1B5C4" stroke-width="1.5" stroke-linecap="round" stroke-linejoin="round"/>
<path d="M12.25 12.0375C13.5266 11.6099 14.8521 11.3453 16.195 11.25" stroke="#B1B5C4" stroke-width="1.5" stroke-linecap="round" stroke-linejoin="round"/>
<path d="M16.195 2.00254C16.765 1.95304 17.3815 1.92154 18.049 1.91254C18.0999 1.91224 18.1504 1.92202 18.1975 1.94133C18.2446 1.96064 18.2874 1.98909 18.3235 2.02504C18.3966 2.09892 18.4375 2.19864 18.4375 2.30254V14.583C18.4383 14.6842 18.3996 14.7816 18.3295 14.8545C18.2594 14.9273 18.1636 14.9699 18.0625 14.973C11.8427 15.0533 10 17.1 10 17.1" stroke="#B1B5C4" stroke-width="1.5" stroke-linecap="round" stroke-linejoin="round"/>
<path d="M10 17.1V4.04028C10 4.04028 10.8572 3.08778 13.375 2.45703" stroke="#B1B5C4" stroke-width="1.5" stroke-linecap="round" stroke-linejoin="round"/>
<path d="M16.1875 5.85002V0.900024C15.2396 0.975595 14.2992 1.12607 13.375 1.35002V5.85002L14.7812 4.72502L16.1875 5.85002Z" stroke="#B1B5C4" stroke-width="1.5" stroke-linecap="round" stroke-linejoin="round"/>
</svg>
