<svg width="20" height="20" viewBox="0 0 20 20" fill="none" xmlns="http://www.w3.org/2000/svg">
<path d="M8.875 10.3945C8.8754 10.5889 8.79861 10.7755 8.66149 10.9133C8.52438 11.0511 8.33816 11.1289 8.14375 11.1295H2.29375C2.19746 11.1293 2.10216 11.1101 2.01328 11.073C1.92441 11.036 1.84371 10.9818 1.77579 10.9135C1.70788 10.8453 1.65409 10.7643 1.61749 10.6752C1.58089 10.5861 1.56221 10.4907 1.5625 10.3945V2.30196C1.56231 2.20563 1.58108 2.11021 1.61776 2.02114C1.65444 1.93208 1.70831 1.8511 1.77628 1.78285C1.84425 1.7146 1.925 1.66041 2.01392 1.62336C2.10284 1.58632 2.19818 1.56715 2.2945 1.56696L8.1445 1.57671C8.33878 1.5775 8.52481 1.65534 8.66176 1.79313C8.79871 1.93093 8.8754 2.11743 8.875 2.31171V10.3945Z" stroke="#B1B5C4" stroke-width="1.5" stroke-linecap="round" stroke-linejoin="round"/>
<path d="M18.4346 5.90797C18.4332 6.10059 18.3554 6.28478 18.2183 6.42007C18.0812 6.55535 17.8959 6.63067 17.7033 6.62947H11.8533C11.7579 6.63017 11.6633 6.61205 11.5749 6.57615C11.4865 6.54026 11.4061 6.48729 11.3382 6.42029C11.2702 6.35328 11.2162 6.27354 11.1791 6.18564C11.142 6.09773 11.1227 6.00338 11.1221 5.90797V2.29822C11.1233 2.10581 11.2008 1.92173 11.3376 1.78645C11.4745 1.65116 11.6594 1.57573 11.8518 1.57672L17.7018 1.56697C17.8946 1.56558 18.0801 1.64078 18.2175 1.77607C18.3549 1.91136 18.433 2.09566 18.4346 2.28847V5.90797Z" stroke="#B1B5C4" stroke-width="1.5" stroke-linecap="round" stroke-linejoin="round"/>
<path d="M8.875 17.7182C8.87441 17.8139 8.85499 17.9084 8.81785 17.9966C8.7807 18.0847 8.72657 18.1646 8.65852 18.2319C8.59048 18.2991 8.50987 18.3522 8.42128 18.3883C8.3327 18.4243 8.23789 18.4426 8.14225 18.442L2.29225 18.4322C2.09963 18.433 1.91458 18.3573 1.77774 18.2217C1.64091 18.0862 1.56349 17.9018 1.5625 17.7092V14.1025C1.56299 14.007 1.5823 13.9125 1.61932 13.8245C1.65635 13.7364 1.71036 13.6566 1.77827 13.5894C1.84619 13.5223 1.92667 13.4692 2.01512 13.4331C2.10357 13.3971 2.19825 13.3789 2.29375 13.3795H8.14375C8.33657 13.3785 8.52189 13.4541 8.65901 13.5896C8.79612 13.7252 8.87381 13.9097 8.875 14.1025V17.7182Z" stroke="#B1B5C4" stroke-width="1.5" stroke-linecap="round" stroke-linejoin="round"/>
<path d="M11.8541 18.442C11.7577 18.4418 11.6623 18.4226 11.5733 18.3855C11.4843 18.3484 11.4036 18.2941 11.3356 18.2258C11.2676 18.1575 11.2138 18.0764 11.1771 17.9872C11.1405 17.8981 11.1218 17.8026 11.1221 17.7062V9.61521C11.1218 9.51888 11.1405 9.42344 11.177 9.33434C11.2136 9.24523 11.2674 9.1642 11.3353 9.09588C11.4032 9.02756 11.4839 8.97328 11.5728 8.93615C11.6617 8.89902 11.757 8.87975 11.8533 8.87946H17.7033C17.7996 8.87975 17.895 8.89902 17.9839 8.93615C18.0727 8.97328 18.1534 9.02756 18.2213 9.09588C18.2892 9.1642 18.343 9.24523 18.3796 9.33434C18.4162 9.42344 18.4349 9.51888 18.4346 9.61521V17.6965C18.435 17.8908 18.3583 18.0774 18.2214 18.2153C18.0844 18.3532 17.8984 18.4312 17.7041 18.4322L11.8541 18.442Z" stroke="#B1B5C4" stroke-width="1.5" stroke-linecap="round" stroke-linejoin="round"/>
</svg>
