<svg width="24" height="25" viewBox="0 0 24 25" fill="none" xmlns="http://www.w3.org/2000/svg">
<path d="M10.5479 2.87599C10.7314 3.07969 10.9556 3.24256 11.2061 3.35404C11.4566 3.46553 11.7277 3.52313 12.0019 3.52313C12.276 3.52313 12.5471 3.46553 12.7976 3.35404C13.0481 3.24256 13.2724 3.07969 13.4559 2.87599L14.4019 1.83799C14.673 1.53793 15.0303 1.32913 15.4249 1.24025C15.8194 1.15137 16.2317 1.18676 16.6053 1.34157C16.9789 1.49638 17.2955 1.76302 17.5115 2.10489C17.7275 2.44676 17.8324 2.84711 17.8119 3.25099L17.7409 4.65099C17.7271 4.9241 17.7708 5.19705 17.8689 5.45228C17.9671 5.7075 18.1177 5.93932 18.3109 6.13282C18.5041 6.32633 18.7357 6.47721 18.9908 6.57576C19.2459 6.6743 19.5187 6.71833 19.7919 6.70499L21.1919 6.63399C21.5955 6.61409 21.9954 6.71951 22.3368 6.93578C22.6781 7.15206 22.9443 7.46861 23.0987 7.84206C23.2531 8.21551 23.2882 8.62757 23.1993 9.02177C23.1104 9.41598 22.9017 9.77303 22.6019 10.044L21.5599 10.984C21.3564 11.1678 21.1938 11.3922 21.0825 11.6427C20.9712 11.8932 20.9137 12.1643 20.9137 12.4385C20.9137 12.7126 20.9712 12.9838 21.0825 13.2343C21.1938 13.4848 21.3564 13.7092 21.5599 13.893L22.6019 14.833C22.9019 15.1041 23.1107 15.4615 23.1996 15.856C23.2885 16.2505 23.2531 16.6628 23.0983 17.0364C22.9435 17.41 22.6768 17.7266 22.335 17.9426C21.9931 18.1586 21.5928 18.2636 21.1889 18.243L19.7889 18.172C19.5152 18.1579 19.2415 18.2015 18.9857 18.2998C18.7299 18.3981 18.4976 18.5491 18.3038 18.7429C18.11 18.9367 17.959 19.169 17.8607 19.4248C17.7623 19.6807 17.7188 19.9543 17.7329 20.228L17.8039 21.628C17.8218 22.0298 17.7155 22.4275 17.4996 22.7668C17.2837 23.1062 16.9685 23.3709 16.5969 23.5249C16.2253 23.6789 15.8153 23.7148 15.4226 23.6277C15.0299 23.5406 14.6735 23.3347 14.4019 23.038L13.4609 21.997C13.2772 21.7936 13.0529 21.631 12.8024 21.5196C12.552 21.4083 12.2809 21.3508 12.0069 21.3508C11.7328 21.3508 11.4618 21.4083 11.2113 21.5196C10.9609 21.631 10.7365 21.7936 10.5529 21.997L9.60787 23.038C9.33668 23.3361 8.98016 23.5433 8.58692 23.6313C8.19367 23.7194 7.78283 23.6841 7.41042 23.5301C7.038 23.3761 6.72212 23.1111 6.50584 22.771C6.28957 22.431 6.18342 22.0326 6.20187 21.63L6.27387 20.23C6.28795 19.9563 6.24441 19.6827 6.14607 19.4268C6.04773 19.171 5.89677 18.9387 5.70297 18.7449C5.50917 18.5511 5.27685 18.4001 5.02102 18.3018C4.7652 18.2035 4.49158 18.1599 4.21787 18.174L2.81787 18.245C2.41416 18.2661 2.01381 18.1617 1.67181 17.9461C1.32981 17.7305 1.06291 17.4144 0.907754 17.0411C0.752602 16.6678 0.716805 16.2556 0.805276 15.8612C0.893747 15.4667 1.10215 15.1093 1.40187 14.838L2.44287 13.898C2.64632 13.7142 2.80895 13.4898 2.92026 13.2393C3.03157 12.9888 3.08909 12.7176 3.08909 12.4435C3.08909 12.1693 3.03157 11.8982 2.92026 11.6477C2.80895 11.3972 2.64632 11.1728 2.44287 10.989L1.40187 10.044C1.10312 9.77299 0.895355 9.41634 0.806973 9.02279C0.718591 8.62925 0.753908 8.21801 0.908094 7.84529C1.06228 7.47257 1.32781 7.15656 1.66839 6.94047C2.00897 6.72437 2.40798 6.61874 2.81087 6.63799L4.21087 6.70899C4.4851 6.72341 4.7593 6.67998 5.01565 6.58153C5.272 6.48308 5.50478 6.33181 5.69886 6.13754C5.89294 5.94326 6.04399 5.71034 6.14219 5.45389C6.2404 5.19745 6.28356 4.92321 6.26887 4.64899L6.20187 3.24799C6.18298 2.84526 6.28881 2.4465 6.50492 2.10613C6.72103 1.76577 7.03689 1.50037 7.40941 1.34616C7.78193 1.19194 8.19296 1.15642 8.58641 1.24445C8.97986 1.33247 9.33658 1.53975 9.60787 1.83799L10.5479 2.87599Z" stroke="#353945" stroke-width="1.3" stroke-linecap="round" stroke-linejoin="round"/>
<path d="M7.5 12.439C7.5 13.6325 7.97411 14.7771 8.81802 15.621C9.66193 16.4649 10.8065 16.939 12 16.939C13.1935 16.939 14.3381 16.4649 15.182 15.621C16.0259 14.7771 16.5 13.6325 16.5 12.439C16.5 11.2455 16.0259 10.1009 15.182 9.25701C14.3381 8.4131 13.1935 7.939 12 7.939C10.8065 7.939 9.66193 8.4131 8.81802 9.25701C7.97411 10.1009 7.5 11.2455 7.5 12.439V12.439Z" stroke="#353945" stroke-width="1.3" stroke-linecap="round" stroke-linejoin="round"/>
</svg>
