<svg width="304" height="168" viewBox="0 0 304 168" fill="none" xmlns="http://www.w3.org/2000/svg">
<mask id="mask0_676_35019" style="mask-type:alpha" maskUnits="userSpaceOnUse" x="0" y="0" width="304" height="168">
<rect width="304" height="168" fill="#D9D9D9"/>
</mask>
<g mask="url(#mask0_676_35019)">
<path fill-rule="evenodd" clip-rule="evenodd" d="M-6.05562 -14.5498L-12.8368 1.6314L-14.5324 5.51173L-9.61621 6.8936L-16.6268 23.0575L4.04813 2.56849C2.20813 2.05209 -0.647037 1.27168 -2.97284 0.635996C-4.59176 0.19348 -5.95402 -0.17886 -6.53939 -0.343402C-6.52661 -0.53161 -6.4516 -0.655735 -6.4516 -0.655735C-6.4516 -0.655735 -3.59847 -0.0970323 -0.245503 0.228752L4.68277 -11.5313L-6.05562 -14.5498Z" fill="#E6E8EC"/>
<path fill-rule="evenodd" clip-rule="evenodd" d="M29.2012 -4.63955L22.4201 11.5416L20.7245 15.4219L25.6406 16.8038L18.63 32.9677L39.305 12.4787C37.465 11.9623 34.6098 11.1819 32.284 10.5462C30.6651 10.1037 29.3028 9.73136 28.7174 9.56682C28.7302 9.37861 28.8052 9.25448 28.8052 9.25448C28.8052 9.25448 31.6584 9.81318 35.0113 10.139L39.9396 -1.62112L29.2012 -4.63955Z" fill="#E6E8EC"/>
<path fill-rule="evenodd" clip-rule="evenodd" d="M13.3457 51.7717L6.56459 67.9529L4.869 71.8332L9.78516 73.2151L2.77453 89.379L23.4495 68.89C21.6095 68.3736 18.7543 67.5932 16.4285 66.9575C14.8096 66.515 13.4473 66.1426 12.862 65.9781C12.8748 65.7899 12.9498 65.6657 12.9498 65.6657C12.9498 65.6657 15.8029 66.2244 19.1559 66.5502L24.0841 54.7901L13.3457 51.7717Z" fill="#E6E8EC"/>
<path fill-rule="evenodd" clip-rule="evenodd" d="M-2.51168 108.183L-9.29284 124.364L-10.9884 128.244L-6.07226 129.626L-13.0829 145.79L7.59207 125.301C5.75208 124.784 2.89691 124.004 0.571105 123.368C-1.04782 122.926 -2.41007 122.554 -2.99545 122.389C-2.98266 122.201 -2.90765 122.077 -2.90765 122.077C-2.90765 122.077 -0.0545237 122.635 3.29844 122.961L8.22672 111.201L-2.51168 108.183Z" fill="#E6E8EC"/>
<path fill-rule="evenodd" clip-rule="evenodd" d="M64.458 5.27104L57.6769 21.4522L55.9813 25.3325L60.8975 26.7144L53.8868 42.8783L74.5618 22.3893C72.7218 21.8729 69.8666 21.0925 67.5408 20.4568C65.9219 20.0143 64.5597 19.6419 63.9743 19.4774C63.9871 19.2892 64.0621 19.1651 64.0621 19.1651C64.0621 19.1651 66.9152 19.7238 70.2682 20.0496L75.1964 8.28947L64.458 5.27104Z" fill="#E6E8EC"/>
<path fill-rule="evenodd" clip-rule="evenodd" d="M48.6026 61.6819L41.8214 77.8631L40.1258 81.7434L45.042 83.1253L38.0314 99.2892L58.7063 78.8002C56.8663 78.2838 54.0112 77.5034 51.6854 76.8677C50.0664 76.4252 48.7042 76.0528 48.1188 75.8883C48.1316 75.7001 48.2066 75.576 48.2066 75.576C48.2066 75.576 51.0597 76.1347 54.4127 76.4604L59.341 64.7004L48.6026 61.6819Z" fill="#E6E8EC"/>
<path fill-rule="evenodd" clip-rule="evenodd" d="M32.7452 118.093L25.964 134.274L24.2684 138.154L29.1846 139.536L22.1739 155.7L42.8489 135.211C41.0089 134.695 38.1537 133.914 35.8279 133.279C34.209 132.836 32.8468 132.464 32.2614 132.299C32.2742 132.111 32.3492 131.987 32.3492 131.987C32.3492 131.987 35.2023 132.546 38.5553 132.871L43.4836 121.111L32.7452 118.093Z" fill="#E6E8EC"/>
<path fill-rule="evenodd" clip-rule="evenodd" d="M115.571 -41.23L108.79 -25.0488L107.095 -21.1685L112.011 -19.7866L105 -3.62272L125.675 -24.1117C123.835 -24.6281 120.98 -25.4086 118.654 -26.0442C117.035 -26.4868 115.673 -26.8591 115.088 -27.0236C115.1 -27.2118 115.175 -27.336 115.175 -27.336C115.175 -27.336 118.028 -26.7773 121.381 -26.4515L126.31 -38.2116L115.571 -41.23Z" fill="#E6E8EC"/>
<path fill-rule="evenodd" clip-rule="evenodd" d="M99.7149 15.1813L92.9337 31.3624L91.2381 35.2428L96.1543 36.6246L89.1437 52.7885L109.819 32.2995C107.979 31.7831 105.123 31.0027 102.798 30.367C101.179 29.9245 99.8165 29.5522 99.2311 29.3876C99.2439 29.1994 99.3189 29.0753 99.3189 29.0753C99.3189 29.0753 102.172 29.634 105.525 29.9598L110.453 18.1997L99.7149 15.1813Z" fill="#E6E8EC"/>
<path fill-rule="evenodd" clip-rule="evenodd" d="M83.8594 71.5921L77.0783 87.7733L75.3827 91.6536L80.2988 93.0355L73.2882 109.199L93.9632 88.7104C92.1232 88.194 89.268 87.4136 86.9422 86.7779C85.3233 86.3354 83.961 85.963 83.3756 85.7985C83.3884 85.6103 83.4634 85.4862 83.4634 85.4862C83.4634 85.4862 86.3166 86.0449 89.6695 86.3707L94.5978 74.6106L83.8594 71.5921Z" fill="#E6E8EC"/>
<path fill-rule="evenodd" clip-rule="evenodd" d="M68.002 128.003L61.2208 144.184L59.5252 148.065L64.4414 149.446L57.4308 165.61L78.1057 145.121C76.2658 144.605 73.4106 143.825 71.0848 143.189C69.4659 142.746 68.1036 142.374 67.5182 142.209C67.531 142.021 67.606 141.897 67.606 141.897C67.606 141.897 70.4591 142.456 73.8121 142.782L78.7404 131.022L68.002 128.003Z" fill="#E6E8EC"/>
<path fill-rule="evenodd" clip-rule="evenodd" d="M150.829 -31.3195L144.048 -15.1384L142.352 -11.258L147.269 -9.87617L140.258 6.28774L160.933 -14.2013C159.093 -14.7177 156.238 -15.4981 153.912 -16.1338C152.293 -16.5763 150.931 -16.9486 150.345 -17.1132C150.358 -17.3014 150.433 -17.4255 150.433 -17.4255C150.433 -17.4255 153.286 -16.8668 156.639 -16.541L161.568 -28.3011L150.829 -31.3195Z" fill="#E6E8EC"/>
<path fill-rule="evenodd" clip-rule="evenodd" d="M186.013 -21.43L179.232 -5.24879L177.536 -1.36846L182.452 0.0134145L175.442 16.1773L196.116 -4.3117C194.276 -4.82809 191.421 -5.6085 189.096 -6.24419C187.477 -6.68671 186.114 -7.05905 185.529 -7.22359C185.542 -7.4118 185.617 -7.53592 185.617 -7.53592C185.617 -7.53592 188.47 -6.97722 191.823 -6.65144L196.751 -18.4115L186.013 -21.43Z" fill="#E6E8EC"/>
<path fill-rule="evenodd" clip-rule="evenodd" d="M221.196 -11.5403L214.415 4.64086L212.72 8.52119L217.636 9.90306L210.625 26.067L231.3 5.57795C229.46 5.06155 226.605 4.28114 224.279 3.64546C222.66 3.20294 221.298 2.8306 220.713 2.66606C220.725 2.47785 220.8 2.35373 220.8 2.35373C220.8 2.35373 223.653 2.91243 227.006 3.23821L231.935 -8.52188L221.196 -11.5403Z" fill="#E6E8EC"/>
<path fill-rule="evenodd" clip-rule="evenodd" d="M256.38 -1.65072L249.599 14.5304L247.903 18.4108L252.819 19.7927L245.809 35.9566L266.484 15.4675C264.644 14.9511 261.789 14.1707 259.463 13.535C257.844 13.0925 256.482 12.7202 255.896 12.5556C255.909 12.3674 255.984 12.2433 255.984 12.2433C255.984 12.2433 258.837 12.802 262.19 13.1278L267.118 1.36771L256.38 -1.65072Z" fill="#E6E8EC"/>
<path fill-rule="evenodd" clip-rule="evenodd" d="M291.563 8.23887L284.781 24.42L283.086 28.3004L288.002 29.6822L280.991 45.8462L301.666 25.3571C299.826 24.8407 296.971 24.0603 294.645 23.4246C293.026 22.9821 291.664 22.6098 291.079 22.4452C291.092 22.257 291.167 22.1329 291.167 22.1329C291.167 22.1329 294.02 22.6916 297.373 23.0174L302.301 11.2573L291.563 8.23887Z" fill="#E6E8EC"/>
<path fill-rule="evenodd" clip-rule="evenodd" d="M134.973 25.092L128.192 41.2731L126.496 45.1535L131.412 46.5353L124.401 62.6992L145.076 42.2102C143.236 41.6938 140.381 40.9134 138.055 40.2777C136.437 39.8352 135.074 39.4629 134.489 39.2983C134.502 39.1101 134.577 38.986 134.577 38.986C134.577 38.986 137.43 39.5447 140.783 39.8705L145.711 28.1104L134.973 25.092Z" fill="#E6E8EC"/>
<path fill-rule="evenodd" clip-rule="evenodd" d="M170.156 34.9815L163.375 51.1627L161.68 55.043L166.596 56.4249L159.585 72.5888L180.26 52.0998C178.42 51.5834 175.565 50.803 173.239 50.1673C171.62 49.7248 170.258 49.3525 169.673 49.1879C169.685 48.9997 169.76 48.8756 169.76 48.8756C169.76 48.8756 172.613 49.4343 175.966 49.7601L180.895 38L170.156 34.9815Z" fill="#E6E8EC"/>
<path fill-rule="evenodd" clip-rule="evenodd" d="M205.34 44.8711L198.559 61.0523L196.863 64.9326L201.779 66.3145L194.769 82.4784L215.444 61.9894C213.604 61.473 210.748 60.6926 208.423 60.0569C206.804 59.6144 205.441 59.242 204.856 59.0775C204.869 58.8893 204.944 58.7652 204.944 58.7652C204.944 58.7652 207.797 59.3239 211.15 59.6497L216.078 47.8896L205.34 44.8711Z" fill="#E6E8EC"/>
<path fill-rule="evenodd" clip-rule="evenodd" d="M240.523 54.7608L233.741 70.9419L232.046 74.8223L236.962 76.2041L229.951 92.3681L250.626 71.879C248.786 71.3626 245.931 70.5822 243.605 69.9465C241.986 69.504 240.624 69.1317 240.039 68.9671C240.052 68.7789 240.127 68.6548 240.127 68.6548C240.127 68.6548 242.98 69.2135 246.333 69.5393L251.261 57.7792L240.523 54.7608Z" fill="#E6E8EC"/>
<path fill-rule="evenodd" clip-rule="evenodd" d="M275.706 64.6504L268.925 80.8315L267.229 84.7119L272.146 86.0937L265.135 102.258L285.81 81.7686C283.97 81.2522 281.115 80.4718 278.789 79.8361C277.17 79.3936 275.808 79.0213 275.222 78.8567C275.235 78.6685 275.31 78.5444 275.31 78.5444C275.31 78.5444 278.163 79.1031 281.516 79.4289L286.444 67.6688L275.706 64.6504Z" fill="#E6E8EC"/>
<path fill-rule="evenodd" clip-rule="evenodd" d="M310.89 74.54L304.109 90.7211L302.413 94.6015L307.329 95.9833L300.318 112.147L320.993 91.6582C319.153 91.1418 316.298 90.3614 313.972 89.7257C312.354 89.2832 310.991 88.9109 310.406 88.7463C310.419 88.5581 310.494 88.434 310.494 88.434C310.494 88.434 313.347 88.9927 316.7 89.3185L321.628 77.5584L310.89 74.54Z" fill="#E6E8EC"/>
<path fill-rule="evenodd" clip-rule="evenodd" d="M119.116 81.5025L112.335 97.6836L110.64 101.564L115.556 102.946L108.545 119.11L129.22 98.6207C127.38 98.1043 124.525 97.3239 122.199 96.6882C120.58 96.2457 119.218 95.8734 118.632 95.7088C118.645 95.5206 118.72 95.3965 118.72 95.3965C118.72 95.3965 121.573 95.9552 124.926 96.281L129.855 84.5209L119.116 81.5025Z" fill="#E6E8EC"/>
<path fill-rule="evenodd" clip-rule="evenodd" d="M154.3 91.3921L147.519 107.573L145.823 111.454L150.739 112.835L143.729 128.999L164.404 108.51C162.564 107.994 159.708 107.214 157.383 106.578C155.764 106.135 154.401 105.763 153.816 105.598C153.829 105.41 153.904 105.286 153.904 105.286C153.904 105.286 156.757 105.845 160.11 106.171L165.038 94.4105L154.3 91.3921Z" fill="#E6E8EC"/>
<path fill-rule="evenodd" clip-rule="evenodd" d="M189.483 101.282L182.702 117.463L181.007 121.343L185.923 122.725L178.912 138.889L199.587 118.4C197.747 117.884 194.892 117.103 192.566 116.467C190.947 116.025 189.585 115.653 189 115.488C189.012 115.3 189.087 115.176 189.087 115.176C189.087 115.176 191.941 115.734 195.294 116.06L200.222 104.3L189.483 101.282Z" fill="#E6E8EC"/>
<path fill-rule="evenodd" clip-rule="evenodd" d="M224.667 111.171L217.886 127.352L216.19 131.233L221.106 132.615L214.096 148.779L234.771 128.29C232.931 127.773 230.076 126.993 227.75 126.357C226.131 125.915 224.769 125.542 224.183 125.378C224.196 125.189 224.271 125.065 224.271 125.065C224.271 125.065 227.124 125.624 230.477 125.95L235.405 114.19L224.667 111.171Z" fill="#E6E8EC"/>
<path fill-rule="evenodd" clip-rule="evenodd" d="M259.85 121.061L253.068 137.242L251.373 141.122L256.289 142.504L249.278 158.668L269.953 138.179C268.113 137.663 265.258 136.882 262.932 136.247C261.314 135.804 259.951 135.432 259.366 135.267C259.379 135.079 259.454 134.955 259.454 134.955C259.454 134.955 262.307 135.514 265.66 135.839L270.588 124.079L259.85 121.061Z" fill="#E6E8EC"/>
<path fill-rule="evenodd" clip-rule="evenodd" d="M295.033 130.95L288.252 147.132L286.556 151.012L291.473 152.394L284.462 168.558L305.137 148.069C303.297 147.552 300.442 146.772 298.116 146.136C296.497 145.694 295.135 145.321 294.549 145.157C294.562 144.969 294.637 144.845 294.637 144.845C294.637 144.845 297.49 145.403 300.843 145.729L305.772 133.969L295.033 130.95Z" fill="#E6E8EC"/>
<path fill-rule="evenodd" clip-rule="evenodd" d="M103.26 137.913L96.4786 154.095L94.7831 157.975L99.6992 159.357L92.6886 175.521L113.364 155.032C111.524 154.515 108.668 153.735 106.343 153.099C104.724 152.657 103.361 152.284 102.776 152.12C102.789 151.932 102.864 151.808 102.864 151.808C102.864 151.808 105.717 152.366 109.07 152.692L113.998 140.932L103.26 137.913Z" fill="#E6E8EC"/>
<path fill-rule="evenodd" clip-rule="evenodd" d="M138.443 147.803L131.662 163.984L129.967 167.865L134.883 169.246L127.872 185.41L148.547 164.921C146.707 164.405 143.852 163.625 141.526 162.989C139.907 162.546 138.545 162.174 137.96 162.009C137.972 161.821 138.047 161.697 138.047 161.697C138.047 161.697 140.901 162.256 144.254 162.582L149.182 150.822L138.443 147.803Z" fill="#E6E8EC"/>
<path fill-rule="evenodd" clip-rule="evenodd" d="M173.627 157.693L166.846 173.874L165.15 177.754L170.066 179.136L163.056 195.3L183.731 174.811C181.891 174.295 179.036 173.514 176.71 172.878C175.091 172.436 173.729 172.064 173.143 171.899C173.156 171.711 173.231 171.587 173.231 171.587C173.231 171.587 176.084 172.145 179.437 172.471L184.365 160.711L173.627 157.693Z" fill="#E6E8EC"/>
<path fill-rule="evenodd" clip-rule="evenodd" d="M208.811 167.582L202.029 183.763L200.334 187.644L205.25 189.026L198.239 205.19L218.914 184.701C217.074 184.184 214.219 183.404 211.893 182.768C210.274 182.326 208.912 181.953 208.327 181.789C208.34 181.6 208.415 181.476 208.415 181.476C208.415 181.476 211.268 182.035 214.621 182.361L219.549 170.601L208.811 167.582Z" fill="#E6E8EC"/>
</g>
</svg>
