<svg width="25" height="24" viewBox="0 0 25 24" fill="none" xmlns="http://www.w3.org/2000/svg">
<g clip-path="url(#clip0_43_15017)">
<path d="M8.48438 10.051C8.48438 11.0456 8.87946 11.9994 9.58272 12.7026C10.286 13.4059 11.2398 13.801 12.2344 13.801C13.2289 13.801 14.1828 13.4059 14.886 12.7026C15.5893 11.9994 15.9844 11.0456 15.9844 10.051C15.9844 9.05643 15.5893 8.10261 14.886 7.39934C14.1828 6.69608 13.2289 6.30099 12.2344 6.30099C11.2398 6.30099 10.286 6.69608 9.58272 7.39934C8.87946 8.10261 8.48438 9.05643 8.48438 10.051Z" stroke="#353945" stroke-width="1.5" stroke-linecap="round" stroke-linejoin="round"/>
<path d="M20.4844 4.05099H18.2344L17.5634 2.70899C17.3142 2.21079 16.9312 1.7918 16.4573 1.49896C15.9835 1.20613 15.4374 1.05101 14.8804 1.05099H9.58838C9.03132 1.05101 8.48528 1.20613 8.01141 1.49896C7.53754 1.7918 7.15456 2.21079 6.90538 2.70899L6.23438 4.05099H3.98438C3.18873 4.05099 2.42566 4.36707 1.86305 4.92967C1.30045 5.49228 0.984375 6.25535 0.984375 7.05099V14.551C0.984375 15.3466 1.30045 16.1097 1.86305 16.6723C2.42566 17.2349 3.18873 17.551 3.98438 17.551H8.23438L11.6104 22.615C11.6789 22.7177 11.7717 22.8019 11.8805 22.8602C11.9894 22.9184 12.1109 22.9489 12.2344 22.9489C12.3578 22.9489 12.4794 22.9184 12.5882 22.8602C12.6971 22.8019 12.7899 22.7177 12.8584 22.615L16.2344 17.551H20.4844C21.28 17.551 22.0431 17.2349 22.6057 16.6723C23.1683 16.1097 23.4844 15.3466 23.4844 14.551V7.05099C23.4844 6.25535 23.1683 5.49228 22.6057 4.92967C22.0431 4.36707 21.28 4.05099 20.4844 4.05099V4.05099Z" stroke="#353945" stroke-width="1.5" stroke-linecap="round" stroke-linejoin="round"/>
</g>
<defs>
<clipPath id="clip0_43_15017">
<rect width="24" height="24" fill="white" transform="translate(0.234375)"/>
</clipPath>
</defs>
</svg>
