<svg width="19" height="18" viewBox="0 0 19 18" fill="none" xmlns="http://www.w3.org/2000/svg">
<g clip-path="url(#clip0_1729_24598)">
<path d="M8.67188 12.9375C8.67188 14.131 9.14598 15.2756 9.98989 16.1195C10.8338 16.9634 11.9784 17.4375 13.1719 17.4375C14.3653 17.4375 15.5099 16.9634 16.3539 16.1195C17.1978 15.2756 17.6719 14.131 17.6719 12.9375C17.6719 11.744 17.1978 10.5994 16.3539 9.75552C15.5099 8.91161 14.3653 8.4375 13.1719 8.4375C11.9784 8.4375 10.8338 8.91161 9.98989 9.75552C9.14598 10.5994 8.67188 11.744 8.67188 12.9375Z" stroke="#777E91" stroke-width="1.5" stroke-linecap="round" stroke-linejoin="round"/>
<path d="M13.1719 10.6875V15.1875V10.6875Z" fill="#777E91"/>
<path d="M13.1719 10.6875V15.1875" stroke="#777E91" stroke-width="1.5" stroke-linecap="round" stroke-linejoin="round"/>
<path d="M10.9219 12.9375H15.4219" stroke="#777E91" stroke-width="1.5" stroke-linecap="round" stroke-linejoin="round"/>
<path d="M0.796875 12.9375C0.797445 12.1006 1.00541 11.2768 1.40217 10.5399C1.79893 9.803 2.37212 9.1759 3.07049 8.71468C3.76887 8.25346 4.57065 7.97249 5.40416 7.89689C6.23767 7.8213 7.07692 7.95344 7.84687 8.28149" stroke="#777E91" stroke-width="1.5" stroke-linecap="round" stroke-linejoin="round"/>
<path d="M2.76562 3.65625C2.76563 4.47676 3.09157 5.26367 3.67176 5.84386C4.25195 6.42405 5.03886 6.75 5.85938 6.75C6.67989 6.75 7.4668 6.42405 8.04699 5.84386C8.62718 5.26367 8.95312 4.47676 8.95312 3.65625C8.95312 2.83574 8.62718 2.04883 8.04699 1.46864C7.4668 0.888448 6.67989 0.5625 5.85938 0.5625C5.03886 0.5625 4.25195 0.888448 3.67176 1.46864C3.09157 2.04883 2.76563 2.83574 2.76562 3.65625V3.65625Z" stroke="#777E91" stroke-width="1.5" stroke-linecap="round" stroke-linejoin="round"/>
</g>
<defs>
<clipPath id="clip0_1729_24598">
<rect width="18" height="18" fill="white" transform="translate(0.234375)"/>
</clipPath>
</defs>
</svg>
