<svg width="20" height="20" viewBox="0 0 20 20" fill="none" xmlns="http://www.w3.org/2000/svg">
<path d="M0.833008 4.16675H19.1663" stroke="#FF4747" stroke-width="1.5" stroke-linecap="round" stroke-linejoin="round"/>
<path d="M11.875 0.833374H8.125C7.79348 0.833374 7.47554 0.96507 7.24112 1.19949C7.0067 1.43391 6.875 1.75185 6.875 2.08337V4.16671H13.125V2.08337C13.125 1.75185 12.9933 1.43391 12.7589 1.19949C12.5245 0.96507 12.2065 0.833374 11.875 0.833374Z" stroke="#FF4747" stroke-width="1.5" stroke-linecap="round" stroke-linejoin="round"/>
<path d="M8.125 14.7917V8.54175" stroke="#FF4747" stroke-width="1.5" stroke-linecap="round" stroke-linejoin="round"/>
<path d="M11.875 14.7917V8.54175" stroke="#FF4747" stroke-width="1.5" stroke-linecap="round" stroke-linejoin="round"/>
<path d="M15.7167 18.0167C15.6935 18.3299 15.5525 18.6227 15.3221 18.8361C15.0917 19.0494 14.789 19.1676 14.475 19.1667H5.525C5.21097 19.1676 4.90828 19.0494 4.67789 18.8361C4.4475 18.6227 4.30652 18.3299 4.28333 18.0167L3.125 4.16675H16.875L15.7167 18.0167Z" stroke="#FF4747" stroke-width="1.5" stroke-linecap="round" stroke-linejoin="round"/>
</svg>
