<svg width="20" height="20" viewBox="0 0 20 20" fill="none" xmlns="http://www.w3.org/2000/svg">
<g clip-path="url(#clip0_918_43582)">
<path d="M18.4917 1.50834C18.2078 1.22567 17.8707 1.00206 17.5 0.850406C17.1292 0.698753 16.732 0.622068 16.3314 0.62478C15.9308 0.627491 15.5347 0.709547 15.1661 0.866206C14.7974 1.02287 14.4634 1.25102 14.1833 1.5375L2.1 13.6208L0.625 19.375L6.37917 17.8992L18.4625 5.81584C18.7491 5.53595 18.9773 5.20203 19.134 4.8334C19.2907 4.46476 19.3728 4.06872 19.3755 3.66817C19.3782 3.26762 19.3015 2.8705 19.1498 2.49978C18.9981 2.12905 18.7744 1.79208 18.4917 1.50834V1.50834Z" stroke="#777E91" stroke-width="1.3" stroke-linecap="round" stroke-linejoin="round"/>
<path d="M13.8359 1.88333L18.1143 6.16166L13.8359 1.88333Z" fill="#B1B5C4"/>
<path d="M13.8359 1.88333L18.1143 6.16166" stroke="#777E91" stroke-width="1.3" stroke-linecap="round" stroke-linejoin="round"/>
<path d="M2.10156 13.62L6.38406 17.895" stroke="#777E91" stroke-width="1.3" stroke-linecap="round" stroke-linejoin="round"/>
</g>
<defs>
<clipPath id="clip0_918_43582">
<rect width="20" height="20" fill="white"/>
</clipPath>
</defs>
</svg>
