<svg width="19" height="18" viewBox="0 0 19 18" fill="none" xmlns="http://www.w3.org/2000/svg">
<g clip-path="url(#clip0_1729_24645)">
<path d="M16.5469 14.0625H8.67188L4.17188 17.4375V14.0625H1.92188C1.62351 14.0625 1.33736 13.944 1.12638 13.733C0.915401 13.522 0.796875 13.2359 0.796875 12.9375V1.6875C0.796875 1.38913 0.915401 1.10298 1.12638 0.892005C1.33736 0.681026 1.62351 0.5625 1.92188 0.5625H16.5469C16.8452 0.5625 17.1314 0.681026 17.3424 0.892005C17.5533 1.10298 17.6719 1.38913 17.6719 1.6875V12.9375C17.6719 13.2359 17.5533 13.522 17.3424 13.733C17.1314 13.944 16.8452 14.0625 16.5469 14.0625Z" stroke="#777E91" stroke-width="1.5" stroke-linecap="round" stroke-linejoin="round"/>
<path d="M7.46213 5.4375C7.32398 5.1563 7.1098 4.91945 6.84387 4.75381C6.57795 4.58817 6.27092 4.50037 5.95763 4.50037C5.64433 4.50037 5.3373 4.58817 5.07138 4.75381C4.80545 4.91945 4.59127 5.1563 4.45312 5.4375" fill="#777E91"/>
<path d="M7.46213 5.4375C7.32398 5.1563 7.1098 4.91945 6.84387 4.75381C6.57795 4.58817 6.27092 4.50037 5.95763 4.50037C5.64433 4.50037 5.3373 4.58817 5.07138 4.75381C4.80545 4.91945 4.59127 5.1563 4.45312 5.4375" stroke="#777E91" stroke-width="1.5" stroke-linecap="round" stroke-linejoin="round"/>
<path d="M14.2043 5.4375C14.0662 5.1563 13.852 4.91945 13.5861 4.75381C13.3201 4.58817 13.0131 4.50037 12.6998 4.50037C12.3865 4.50037 12.0795 4.58817 11.8136 4.75381C11.5476 4.91945 11.3335 5.1563 11.1953 5.4375" stroke="#777E91" stroke-width="1.5" stroke-linecap="round" stroke-linejoin="round"/>
<path d="M6.42188 9.5625C7.21582 10.2864 8.25148 10.6876 9.32587 10.6876C10.4003 10.6876 11.4359 10.2864 12.2299 9.5625" stroke="#777E91" stroke-width="1.5" stroke-linecap="round" stroke-linejoin="round"/>
</g>
<defs>
<clipPath id="clip0_1729_24645">
<rect width="18" height="18" fill="white" transform="translate(0.234375)"/>
</clipPath>
</defs>
</svg>
