<svg width="20" height="20" viewBox="0 0 20 20" fill="none" xmlns="http://www.w3.org/2000/svg">
<g clip-path="url(#clip0_1230_49259)">
<path d="M18.125 15.0002V17.9168C18.125 18.2483 17.9933 18.5663 17.7589 18.8007C17.5245 19.0352 17.2065 19.1668 16.875 19.1668H2.5C2.00272 19.1668 1.52581 18.9692 1.17418 18.6177C0.822544 18.266 0.625 17.7891 0.625 17.2918V2.7085C0.625 2.21121 0.822544 1.7343 1.17418 1.38267C1.52581 1.03104 2.00272 0.833496 2.5 0.833496H15.625C15.9565 0.833496 16.2745 0.965196 16.5089 1.19961C16.7433 1.43403 16.875 1.75198 16.875 2.0835V4.79183" stroke="#777E91" stroke-width="1.5" stroke-linecap="round" stroke-linejoin="round"/>
<path d="M18.1257 15C18.4572 15 18.7752 14.8683 19.0096 14.6339C19.244 14.3995 19.3757 14.0815 19.3757 13.75V10C19.3757 9.6685 19.244 9.3505 19.0096 9.11608C18.7752 8.88167 18.4572 8.75 18.1257 8.75H14.584C13.7552 8.75 12.9603 9.07925 12.3742 9.66525C11.7882 10.2513 11.459 11.0462 11.459 11.875C11.459 12.7038 11.7882 13.4987 12.3742 14.0847C12.9603 14.6707 13.7552 15 14.584 15H18.1257Z" stroke="#777E91" stroke-width="1.5" stroke-linecap="round" stroke-linejoin="round"/>
<path d="M14.9961 12.1836C14.8235 12.1836 14.6836 12.0438 14.6836 11.8711C14.6836 11.6985 14.8235 11.5586 14.9961 11.5586" stroke="#777E91" stroke-width="1.5"/>
<path d="M14.9961 12.1836C15.1687 12.1836 15.3086 12.0438 15.3086 11.8711C15.3086 11.6985 15.1687 11.5586 14.9961 11.5586" stroke="#777E91" stroke-width="1.5"/>
<path d="M18.1257 8.75032V6.04199C18.1257 5.71047 17.994 5.39253 17.7596 5.15811C17.5252 4.92368 17.2072 4.79199 16.8757 4.79199H4.69232C4.41843 4.80649 4.14596 4.7439 3.90585 4.61133C3.66574 4.47875 3.46762 4.28151 3.33398 4.04199" stroke="#777E91" stroke-width="1.5" stroke-linecap="round" stroke-linejoin="round"/>
</g>
<defs>
<clipPath id="clip0_1230_49259">
<rect width="20" height="20" fill="white"/>
</clipPath>
</defs>
</svg>
