<svg width="18" height="18" viewBox="0 0 18 18" fill="none" xmlns="http://www.w3.org/2000/svg">
<g clip-path="url(#clip0_43_14978)">
<path d="M5.0625 4.5C5.0625 5.54429 5.47734 6.54581 6.21577 7.28423C6.95419 8.02266 7.95571 8.4375 9 8.4375C10.0443 8.4375 11.0458 8.02266 11.7842 7.28423C12.5227 6.54581 12.9375 5.54429 12.9375 4.5C12.9375 3.45571 12.5227 2.45419 11.7842 1.71577C11.0458 0.977343 10.0443 0.5625 9 0.5625C7.95571 0.5625 6.95419 0.977343 6.21577 1.71577C5.47734 2.45419 5.0625 3.45571 5.0625 4.5V4.5Z" stroke="#777E91" stroke-width="1.3" stroke-linecap="round" stroke-linejoin="round"/>
<path d="M1.6875 17.4375C1.6875 15.4981 2.45792 13.6381 3.82928 12.2668C5.20064 10.8954 7.0606 10.125 9 10.125C10.9394 10.125 12.7994 10.8954 14.1707 12.2668C15.5421 13.6381 16.3125 15.4981 16.3125 17.4375" stroke="#777E91" stroke-width="1.3" stroke-linecap="round" stroke-linejoin="round"/>
</g>
<defs>
<clipPath id="clip0_43_14978">
<rect width="18" height="18" fill="white"/>
</clipPath>
</defs>
</svg>
