<svg width="18" height="18" viewBox="0 0 18 18" fill="none" xmlns="http://www.w3.org/2000/svg">
<g clip-path="url(#clip0_1629_11973)">
<path d="M8.04797 1.01776C8.16254 0.875359 8.30758 0.760457 8.47242 0.681511C8.63726 0.602565 8.8177 0.561584 9.00047 0.561584C9.18324 0.561584 9.36368 0.602565 9.52852 0.681511C9.69336 0.760457 9.8384 0.875359 9.95297 1.01776L11.087 2.42851C11.2154 2.58856 11.3821 2.71368 11.5716 2.79233C11.7612 2.87098 11.9675 2.90062 12.1715 2.87851L13.9715 2.68276C14.1537 2.66252 14.3381 2.68352 14.5111 2.74421C14.6841 2.80489 14.8412 2.90371 14.9709 3.03335C15.1005 3.16299 15.1993 3.32012 15.26 3.49312C15.3207 3.66612 15.3417 3.85055 15.3215 4.03276L15.1257 5.83276C15.1036 6.03678 15.1333 6.24307 15.2119 6.43261C15.2905 6.62215 15.4157 6.78883 15.5757 6.91726L16.9865 8.05126C17.1289 8.16583 17.2438 8.31087 17.3227 8.47571C17.4017 8.64055 17.4426 8.82099 17.4426 9.00376C17.4426 9.18653 17.4017 9.36697 17.3227 9.53181C17.2438 9.69665 17.1289 9.84169 16.9865 9.95626L15.5712 11.085C15.4112 11.2137 15.2861 11.3805 15.2075 11.5701C15.1289 11.7598 15.0992 11.9661 15.1212 12.1703L15.317 13.9703C15.3374 14.1525 15.3165 14.337 15.2558 14.5101C15.1952 14.6831 15.0964 14.8403 14.9667 14.97C14.837 15.0997 14.6798 15.1985 14.5068 15.2591C14.3337 15.3197 14.1492 15.3406 13.967 15.3203L12.167 15.1245C11.9629 15.1023 11.7566 15.1319 11.5671 15.2106C11.3775 15.2892 11.2109 15.4144 11.0825 15.5745L9.95297 16.98C9.83848 17.1225 9.69347 17.2376 9.52862 17.3166C9.36377 17.3956 9.18328 17.4366 9.00047 17.4366C8.81765 17.4366 8.63717 17.3956 8.47232 17.3166C8.30747 17.2376 8.16246 17.1225 8.04797 16.98L6.91472 15.57C6.78612 15.41 6.61931 15.2848 6.42965 15.2062C6.23999 15.1276 6.03359 15.0979 5.82947 15.12L4.02947 15.3158C3.8472 15.3363 3.66264 15.3155 3.48951 15.2549C3.31638 15.1943 3.15912 15.0955 3.02942 14.9658C2.89972 14.8361 2.8009 14.6789 2.74032 14.5057C2.67974 14.3326 2.65894 14.148 2.67947 13.9658L2.87522 12.1658C2.89731 11.9616 2.86768 11.7552 2.78903 11.5656C2.71039 11.3759 2.58528 11.2091 2.42522 11.0805L1.01522 9.94726C0.872693 9.83277 0.757677 9.68776 0.678648 9.52291C0.59962 9.35806 0.558594 9.17758 0.558594 8.99476C0.558594 8.81195 0.59962 8.63146 0.678648 8.46661C0.757677 8.30176 0.872693 8.15675 1.01522 8.04226L2.42522 6.90826C2.58532 6.77988 2.71048 6.61321 2.78914 6.42365C2.86779 6.2341 2.89739 6.02778 2.87522 5.82376L2.67947 4.02376C2.65908 3.84152 2.67998 3.65703 2.74062 3.48396C2.80125 3.3109 2.90007 3.1537 3.02974 3.02403C3.15941 2.89436 3.3166 2.79555 3.48967 2.73491C3.66273 2.67427 3.84723 2.65338 4.02947 2.67376L5.82947 2.86951C6.03359 2.89154 6.23997 2.86187 6.42961 2.78323C6.61926 2.70459 6.78608 2.57952 6.91472 2.41951L8.04797 1.01776Z" stroke="#777E91" stroke-width="1.5" stroke-linecap="round" stroke-linejoin="round"/>
<path d="M6.75 11.2492L11.25 6.74924L6.75 11.2492Z" fill="#777E91"/>
<path d="M6.75 11.2492L11.25 6.74924" stroke="#777E91" stroke-width="1.5" stroke-linecap="round" stroke-linejoin="round"/>
<path d="M6.75 6.74924L11.25 11.2492" stroke="#777E91" stroke-width="1.5" stroke-linecap="round" stroke-linejoin="round"/>
</g>
<defs>
<clipPath id="clip0_1629_11973">
<rect width="18" height="18" fill="white"/>
</clipPath>
</defs>
</svg>
