<svg width="19" height="18" viewBox="0 0 19 18" fill="none" xmlns="http://www.w3.org/2000/svg">
<g clip-path="url(#clip0_1729_24609)">
<path d="M8.14723 1.8285C8.28486 1.98127 8.45306 2.10342 8.64092 2.18703C8.82877 2.27064 9.03211 2.31385 9.23773 2.31385C9.44336 2.31385 9.64669 2.27064 9.83455 2.18703C10.0224 2.10342 10.1906 1.98127 10.3282 1.8285L11.0377 1.05C11.2411 0.824951 11.5091 0.668352 11.805 0.601691C12.1009 0.53503 12.4101 0.561574 12.6903 0.677681C12.9705 0.793787 13.2079 0.993766 13.3699 1.25017C13.532 1.50657 13.6107 1.80683 13.5952 2.10975L13.542 3.15975C13.5317 3.36458 13.5644 3.56929 13.638 3.76071C13.7117 3.95212 13.8246 4.12599 13.9695 4.27112C14.1144 4.41625 14.2881 4.52941 14.4794 4.60332C14.6707 4.67723 14.8754 4.71025 15.0802 4.70025L16.1302 4.647C16.4329 4.63207 16.7329 4.71113 16.9889 4.87334C17.2449 5.03554 17.4445 5.27296 17.5603 5.55304C17.6761 5.83313 17.7025 6.14218 17.6358 6.43783C17.5691 6.73348 17.4126 7.00127 17.1877 7.2045L16.4062 7.9095C16.2536 8.04732 16.1317 8.21562 16.0482 8.40352C15.9647 8.59143 15.9216 8.79476 15.9216 9.00037C15.9216 9.20599 15.9647 9.40931 16.0482 9.59722C16.1317 9.78512 16.2536 9.95342 16.4062 10.0912L17.1877 10.7962C17.4128 10.9996 17.5694 11.2676 17.636 11.5635C17.7027 11.8594 17.6762 12.1686 17.56 12.4488C17.4439 12.729 17.244 12.9664 16.9876 13.1285C16.7312 13.2905 16.4309 13.3692 16.128 13.3537L15.078 13.3005C14.8727 13.2899 14.6675 13.3226 14.4756 13.3963C14.2837 13.4701 14.1095 13.5833 13.9642 13.7287C13.8188 13.874 13.7056 14.0483 13.6318 14.2401C13.5581 14.432 13.5254 14.6372 13.536 14.8425L13.5892 15.8925C13.6027 16.1939 13.523 16.4921 13.361 16.7466C13.1991 17.0012 12.9627 17.1997 12.684 17.3152C12.4053 17.4307 12.0978 17.4576 11.8033 17.3923C11.5087 17.3269 11.2414 17.1725 11.0377 16.95L10.332 16.1692C10.1942 16.0167 10.026 15.8947 9.83815 15.8112C9.65031 15.7278 9.44704 15.6846 9.24148 15.6846C9.03593 15.6846 8.83266 15.7278 8.64482 15.8112C8.45697 15.8947 8.28874 16.0167 8.15098 16.1692L7.44223 16.95C7.23884 17.1736 6.97145 17.329 6.67652 17.395C6.38158 17.4611 6.07345 17.4345 5.79414 17.3191C5.51483 17.2036 5.27792 17.0048 5.11571 16.7498C4.9535 16.4948 4.87389 16.1959 4.88773 15.894L4.94173 14.844C4.95229 14.6387 4.91964 14.4335 4.84588 14.2416C4.77212 14.0498 4.65891 13.8755 4.51356 13.7302C4.36821 13.5848 4.19396 13.4716 4.0021 13.3978C3.81023 13.3241 3.60502 13.2914 3.39973 13.302L2.34973 13.3552C2.04695 13.371 1.74669 13.2927 1.49019 13.1311C1.23368 12.9694 1.03351 12.7323 0.917144 12.4523C0.80078 12.1724 0.773932 11.8632 0.840285 11.5674C0.906638 11.2715 1.06294 11.0035 1.28773 10.8L2.06848 10.095C2.22107 9.95717 2.34304 9.78887 2.42653 9.60097C2.51001 9.41306 2.55314 9.20974 2.55314 9.00412C2.55314 8.79851 2.51001 8.59518 2.42653 8.40727C2.34304 8.21937 2.22107 8.05107 2.06848 7.91325L1.28773 7.2045C1.06367 7.00125 0.907844 6.73376 0.841558 6.4386C0.775272 6.14344 0.801759 5.835 0.917399 5.55547C1.03304 5.27593 1.23219 5.03892 1.48762 4.87685C1.74306 4.71478 2.04231 4.63555 2.34448 4.65L3.39448 4.70325C3.60015 4.71406 3.8058 4.68149 3.99806 4.60765C4.19033 4.53381 4.36491 4.42036 4.51047 4.27465C4.65604 4.12895 4.76932 3.95426 4.84297 3.76192C4.91662 3.56958 4.949 3.36391 4.93798 3.15825L4.88773 2.1075C4.87356 1.80544 4.95293 1.50638 5.11501 1.2511C5.2771 0.995827 5.514 0.796778 5.79339 0.681118C6.07278 0.565457 6.38105 0.538818 6.67614 0.604835C6.97123 0.670852 7.23876 0.82631 7.44223 1.05L8.14723 1.8285Z" stroke="#777E91" stroke-width="1.3" stroke-linecap="round" stroke-linejoin="round"/>
<path d="M5.85938 9.00073C5.85938 9.89584 6.21495 10.7543 6.84789 11.3872C7.48083 12.0202 8.33927 12.3757 9.23438 12.3757C10.1295 12.3757 10.9879 12.0202 11.6209 11.3872C12.2538 10.7543 12.6094 9.89584 12.6094 9.00073C12.6094 8.10563 12.2538 7.24718 11.6209 6.61425C10.9879 5.98131 10.1295 5.62573 9.23438 5.62573C8.33927 5.62573 7.48083 5.98131 6.84789 6.61425C6.21495 7.24718 5.85938 8.10563 5.85938 9.00073V9.00073Z" stroke="#777E91" stroke-width="1.3" stroke-linecap="round" stroke-linejoin="round"/>
</g>
<defs>
<clipPath id="clip0_1729_24609">
<rect width="18" height="18" fill="white" transform="translate(0.234375)"/>
</clipPath>
</defs>
</svg>
