<svg width="19" height="18" viewBox="0 0 19 18" fill="none" xmlns="http://www.w3.org/2000/svg">
<g clip-path="url(#clip0_1729_24628)">
<path d="M8.67188 14.0625C8.37351 14.0625 8.08736 13.944 7.87638 13.733C7.6654 13.522 7.54688 13.2359 7.54688 12.9375V7.3125C7.54688 7.01413 7.6654 6.72798 7.87638 6.517C8.08736 6.30603 8.37351 6.1875 8.67188 6.1875H16.5469C16.8452 6.1875 17.1314 6.30603 17.3424 6.517C17.5533 6.72798 17.6719 7.01413 17.6719 7.3125V12.9375C17.6719 13.2359 17.5533 13.522 17.3424 13.733C17.1314 13.944 16.8452 14.0625 16.5469 14.0625H15.4219V17.4375L12.0469 14.0625H8.67188Z" stroke="#777E91" stroke-width="1.5" stroke-linecap="round" stroke-linejoin="round"/>
<path d="M5.29688 9.5625L3.04688 11.8125V8.4375H1.92188C1.62351 8.4375 1.33736 8.31897 1.12638 8.108C0.915401 7.89702 0.796875 7.61087 0.796875 7.3125V1.6875C0.796875 1.38913 0.915401 1.10298 1.12638 0.892005C1.33736 0.681026 1.62351 0.5625 1.92188 0.5625H9.79688C10.0952 0.5625 10.3814 0.681026 10.5924 0.892005C10.8033 1.10298 10.9219 1.38913 10.9219 1.6875V3.9375" stroke="#777E91" stroke-width="1.5" stroke-linecap="round" stroke-linejoin="round"/>
</g>
<defs>
<clipPath id="clip0_1729_24628">
<rect width="18" height="18" fill="white" transform="translate(0.234375)"/>
</clipPath>
</defs>
</svg>
