<svg width="34" height="34" viewBox="0 0 34 34" fill="none" xmlns="http://www.w3.org/2000/svg">
<path d="M15.5859 15.5833V9.91665H18.4193V15.5833H24.0859V18.4166H18.4193V24.0833H15.5859V18.4166H9.91927V15.5833H15.5859ZM17.0026 31.1666C9.17835 31.1666 2.83594 24.8242 2.83594 17C2.83594 9.17573 9.17835 2.83331 17.0026 2.83331C24.8269 2.83331 31.1693 9.17573 31.1693 17C31.1693 24.8242 24.8269 31.1666 17.0026 31.1666ZM17.0026 28.3333C20.0084 28.3333 22.8911 27.1393 25.0165 25.0139C27.1419 22.8884 28.3359 20.0058 28.3359 17C28.3359 13.9942 27.1419 11.1115 25.0165 8.9861C22.8911 6.86069 20.0084 5.66665 17.0026 5.66665C13.9968 5.66665 11.1141 6.86069 8.98873 8.9861C6.86332 11.1115 5.66927 13.9942 5.66927 17C5.66927 20.0058 6.86332 22.8884 8.98873 25.0139C11.1141 27.1393 13.9968 28.3333 17.0026 28.3333Z" fill="#B1B5C4"/>
</svg>
