<svg width="16" height="16" viewBox="0 0 16 16" fill="none" xmlns="http://www.w3.org/2000/svg">
<path d="M13.0986 5.42588L7.04759 11.7544C6.89818 11.9107 6.69541 12 6.48197 12C6.26853 12 6.06576 11.9107 5.91636 11.7544L2.89618 8.59574C2.58669 8.27206 2.58669 7.73631 2.89618 7.41263C3.20567 7.08894 3.71792 7.08894 4.02741 7.41263L6.48197 9.97977L11.9674 4.24276C12.2769 3.91908 12.7891 3.91908 13.0986 4.24276C13.4081 4.56645 13.4081 5.09104 13.0986 5.42588Z" fill="#23262F"/>
<path d="M13.0986 5.42588L7.04759 11.7544C6.89818 11.9107 6.69541 12 6.48197 12C6.26853 12 6.06576 11.9107 5.91636 11.7544L2.89618 8.59574C2.58669 8.27206 2.58669 7.73631 2.89618 7.41263C3.20567 7.08894 3.71792 7.08894 4.02741 7.41263L6.48197 9.97977L11.9674 4.24276C12.2769 3.91908 12.7891 3.91908 13.0986 4.24276C13.4081 4.56645 13.4081 5.09104 13.0986 5.42588Z" fill="#23262F"/>
</svg>
