<svg width="105" height="20" viewBox="0 0 105 20" fill="none" xmlns="http://www.w3.org/2000/svg">
<path d="M1.77366 0.364563L0 15.5619H9.73353L10.2743 10.8454L5.84012 10.9821L7.07302 0.364563H1.77366Z" fill="#E94359"/>
<path d="M13.2424 0.364563L11.4688 15.5619H16.7681L18.5417 0.364563H13.2424Z" fill="#E94359"/>
<path d="M31.3722 0.364563L29.923 4.124C29.2093 5.99234 28.9064 7.04042 28.6468 8.45306H28.4306C28.5388 7.79231 28.5604 7.47333 28.5604 6.78979C28.5604 6.1974 28.5171 5.65056 28.4522 5.10373L27.8898 0.364563H22.3526L18.1562 15.5619H23.4557L24.5155 10.7543C24.8399 9.25051 24.9481 8.56698 25.1212 7.15434L25.1645 6.81258H25.3375C25.2942 7.33662 25.2942 7.54168 25.2942 7.9518V8.248C25.2942 8.58976 25.3159 9.04545 25.3591 9.61506C25.4024 10.0935 25.4241 10.4809 25.4673 10.7543L26.0296 15.5619H29.3175L31.156 10.9594C31.7832 9.38722 31.9562 8.79482 32.324 7.24548L32.4322 6.81258L32.6267 6.85813C32.3456 8.47584 32.2158 9.45557 32.1293 11.0733L31.8482 15.5619H36.9312L36.8879 0.364563H31.3722Z" fill="#E94359"/>
<path d="M47.6111 0.364563L47.0703 5.1493L49.5578 4.98981L48.3248 15.5618H53.6241L54.8571 4.98981L57.3446 5.1493L57.907 0.364563H47.6111Z" fill="#E94359"/>
<path d="M59.5158 0.364563L57.7422 15.5618H67.4757L68.0164 10.8454L63.5823 10.9821L64.8152 0.364563H59.5158Z" fill="#E94359"/>
<path d="M70.9846 0.364563L69.2109 15.5618H78.8579L79.3338 11.4834H74.9212L75.1159 9.75177H79.0093L79.4419 5.99233H75.5485L75.7432 4.32906H80.0043L80.4585 0.364563H70.9846Z" fill="#E94359"/>
<path d="M92.2662 1.07087C90.8169 0.364552 89.2597 0 87.7888 0C84.501 0 81.8621 2.41515 81.8621 5.44549C81.8621 7.19989 82.576 8.47583 83.9385 9.18215C84.4577 9.47835 84.9985 9.66062 85.9934 9.86568C86.9452 10.0935 87.3561 10.4125 87.3561 10.9366C87.3561 11.4834 86.8803 11.8252 86.1448 11.8252C84.7821 11.8252 83.3979 11.1416 82.5326 10.0252L80.5859 14.1264C81.1699 14.4682 81.6242 14.696 81.927 14.8554C83.333 15.5391 84.9552 15.9491 86.2963 15.9491C89.7787 15.9491 92.5906 13.4656 92.5906 10.4125C92.5906 9.02266 91.9849 7.70116 91.0117 7.01762C90.4925 6.63028 89.6706 6.28852 88.6755 6.0151C87.3561 5.67334 87.0966 5.51385 87.0966 5.03537C87.0966 4.57968 87.5292 4.23792 88.0915 4.23792C89.2163 4.23792 90.3411 4.73917 91.2496 5.60498L93.1746 1.57213C92.7853 1.34428 92.4825 1.18479 92.2662 1.07087Z" fill="#E94359"/>
<path d="M104.04 1.07087C102.59 0.364552 101.033 0 99.5621 0C96.2743 0 93.6356 2.41515 93.6356 5.44549C93.6356 7.19989 94.3493 8.47583 95.712 9.18215C96.2311 9.47835 96.7718 9.66062 97.7669 9.86568C98.7185 10.0935 99.1296 10.4125 99.1296 10.9366C99.1296 11.4834 98.6536 11.8252 97.9183 11.8252C96.5555 11.8252 95.1712 11.1416 94.3061 10.0252L92.3594 14.1264C92.9434 14.4682 93.3975 14.696 93.7004 14.8554C95.1063 15.5391 96.7286 15.9491 98.0696 15.9491C101.552 15.9491 104.364 13.4656 104.364 10.4125C104.364 9.02266 103.758 7.70116 102.785 7.01762C102.266 6.63028 101.444 6.28852 100.449 6.0151C99.1296 5.67334 98.87 5.51385 98.87 5.03537C98.87 4.57968 99.3026 4.23792 99.865 4.23792C100.99 4.23792 102.114 4.73917 103.023 5.60498L104.948 1.57213C104.559 1.34428 104.256 1.18479 104.04 1.07087Z" fill="#E94359"/>
<path fill-rule="evenodd" clip-rule="evenodd" d="M39.9619 0.364685L38.9407 9.11392L38.6641 11.2215H41.0901L39.9618 19.9936L46.7836 7.2714C45.8757 7.27179 44.4695 7.2825 43.3241 7.29123C42.5268 7.2973 41.8559 7.30242 41.567 7.30242C41.5486 7.20964 41.567 7.1394 41.567 7.1394C41.567 7.1394 42.9437 7.02172 44.5191 6.72341L45.2612 0.364685H39.9619Z" fill="#E94359"/>
</svg>
