<svg width="25" height="24" viewBox="0 0 25 24" fill="none" xmlns="http://www.w3.org/2000/svg">
<g clip-path="url(#clip0_5116_67488)">
<path d="M17.7031 3H21.7031C21.9683 3 22.2227 3.10536 22.4102 3.29289C22.5978 3.48043 22.7031 3.73478 22.7031 4V20C22.7031 20.2652 22.5978 20.5196 22.4102 20.7071C22.2227 20.8946 21.9683 21 21.7031 21H3.70312C3.43791 21 3.18355 20.8946 2.99602 20.7071C2.80848 20.5196 2.70313 20.2652 2.70312 20V4C2.70312 3.73478 2.80848 3.48043 2.99602 3.29289C3.18355 3.10536 3.43791 3 3.70312 3H7.70312V1H9.70312V3H15.7031V1H17.7031V3ZM15.7031 5H9.70312V7H7.70312V5H4.70312V9H20.7031V5H17.7031V7H15.7031V5ZM20.7031 11H4.70312V19H20.7031V11Z" fill="#353945"/>
</g>
<defs>
<clipPath id="clip0_5116_67488">
<rect width="24" height="24" fill="white" transform="translate(0.703125)"/>
</clipPath>
</defs>
</svg>
