<svg width="16" height="16" viewBox="0 0 16 16" fill="none" xmlns="http://www.w3.org/2000/svg">
<path d="M3.73332 6.33728H2.66667C2.3 6.33728 2 6.69022 2 7.12159V13.8824C2 14.3137 2.3 14.6667 2.66667 14.6667H3.73332C4.09998 14.6667 4.39998 14.3137 4.39998 13.8824V7.12159C4.39998 6.69022 4.09998 6.33728 3.73332 6.33728Z" fill="#777E91"/>
<path d="M8.53337 3.83533H7.46672C7.10005 3.83533 6.80005 4.18827 6.80005 4.61964V13.8824C6.80005 14.3138 7.10005 14.6667 7.46672 14.6667H8.53337C8.90003 14.6667 9.20003 14.3138 9.20003 13.8824V4.61964C9.20003 4.18827 8.90003 3.83533 8.53337 3.83533Z" fill="#777E91"/>
<path d="M13.3334 1.33337H12.2668C11.9001 1.33337 11.6001 1.68632 11.6001 2.11769V13.8824C11.6001 14.3138 11.9001 14.6667 12.2668 14.6667H13.3334C13.7001 14.6667 14.0001 14.3138 14.0001 13.8824V2.11769C14.0001 1.68632 13.7001 1.33337 13.3334 1.33337Z" fill="#777E91"/>
</svg>
