<svg width="20" height="20" viewBox="0 0 20 20" fill="none" xmlns="http://www.w3.org/2000/svg">
<path d="M7.08464 15.8334H6.66797C3.33464 15.8334 1.66797 15 1.66797 10.8334V6.66669C1.66797 3.33335 3.33464 1.66669 6.66797 1.66669H13.3346C16.668 1.66669 18.3346 3.33335 18.3346 6.66669V10.8334C18.3346 14.1667 16.668 15.8334 13.3346 15.8334H12.918C12.6596 15.8334 12.4096 15.9584 12.2513 16.1667L11.0013 17.8334C10.4513 18.5667 9.5513 18.5667 9.0013 17.8334L7.7513 16.1667C7.61797 15.9834 7.30964 15.8334 7.08464 15.8334Z" stroke="#23262F" stroke-width="1.3" stroke-miterlimit="10" stroke-linecap="round" stroke-linejoin="round"/>
<path d="M5.83203 6.66669H14.1654" stroke="#23262F" stroke-width="1.3" stroke-linecap="round" stroke-linejoin="round"/>
<path d="M5.83203 10.8333H10.832" stroke="#23262F" stroke-width="1.3" stroke-linecap="round" stroke-linejoin="round"/>
</svg>
