<svg width="16" height="16" viewBox="0 0 16 16" fill="none" xmlns="http://www.w3.org/2000/svg">
<g clip-path="url(#clip0_344_32261)">
<path d="M2.66675 4.33331H5.66675V6.33331H2.66675V4.33331Z" stroke="#E94359" stroke-linecap="round" stroke-linejoin="round"/>
<path d="M5.66675 14.3333L6.49608 11.0173C6.54607 10.8172 6.53292 10.6064 6.45844 10.414C6.38397 10.2216 6.25181 10.057 6.08008 9.94265C5.79162 9.75037 5.54569 9.50094 5.35751 9.20979C5.16933 8.91864 5.04291 8.59196 4.98608 8.24998L4.66675 6.33331H5.66675V4.33331C5.66675 4.0681 5.7721 3.81374 5.95964 3.62621C6.14718 3.43867 6.40153 3.33331 6.66675 3.33331H10.6667C10.932 3.33331 11.1863 3.43867 11.3739 3.62621C11.5614 3.81374 11.6667 4.0681 11.6667 4.33331V7.83331C11.6508 8.49873 11.5284 9.15729 11.3041 9.78398C11.214 10.1447 11.214 10.522 11.3041 10.8826L12.1667 14.3333" stroke="#E94359" stroke-linecap="round" stroke-linejoin="round"/>
<path d="M1.66675 1.83331C1.40153 1.83331 1.14718 1.93867 0.959641 2.12621C0.772105 2.31374 0.666748 2.5681 0.666748 2.83331V8.33331C0.666748 8.59853 0.772105 8.85288 0.959641 9.04042C1.14718 9.22796 1.40153 9.33331 1.66675 9.33331C1.93196 9.33331 2.18632 9.22796 2.37385 9.04042C2.56139 8.85288 2.66675 8.59853 2.66675 8.33331V2.83331C2.66675 2.5681 2.56139 2.31374 2.37385 2.12621C2.18632 1.93867 1.93196 1.83331 1.66675 1.83331Z" stroke="#E94359" stroke-linecap="round" stroke-linejoin="round"/>
<path d="M14.6667 1.83331C14.4015 1.83331 14.1472 1.93867 13.9596 2.12621C13.7721 2.31374 13.6667 2.5681 13.6667 2.83331V8.33331C13.6667 8.59853 13.7721 8.85288 13.9596 9.04042C14.1472 9.22796 14.4015 9.33331 14.6667 9.33331C14.932 9.33331 15.1863 9.22796 15.3739 9.04042C15.5614 8.85288 15.6667 8.59853 15.6667 8.33331V2.83331C15.6667 2.5681 15.5614 2.31374 15.3739 2.12621C15.1863 1.93867 14.932 1.83331 14.6667 1.83331Z" stroke="#E94359" stroke-linecap="round" stroke-linejoin="round"/>
<path d="M11.6667 4.33331H13.6667V6.33331H11.6667V4.33331Z" stroke="#E94359" stroke-linecap="round" stroke-linejoin="round"/>
<path d="M7.66675 5.33331V3.33331" stroke="#E94359" stroke-linecap="round" stroke-linejoin="round"/>
<path d="M9.66675 5.33331V3.33331" stroke="#E94359" stroke-linecap="round" stroke-linejoin="round"/>
</g>
<defs>
<clipPath id="clip0_344_32261">
<rect width="16" height="16" fill="white"/>
</clipPath>
</defs>
</svg>
