<svg width="12" height="12" viewBox="0 0 12 12" fill="none" xmlns="http://www.w3.org/2000/svg">
<g clip-path="url(#clip0_676_34185)">
<path d="M4.125 5.75H7.875" stroke="#B1B5C4" stroke-linecap="round" stroke-linejoin="round"/>
<path d="M3.375 8.75C3.17609 8.75 2.98532 8.67098 2.84467 8.53033C2.70402 8.38968 2.625 8.19891 2.625 8V3.5C2.625 3.30109 2.70402 3.11032 2.84467 2.96967C2.98532 2.82902 3.17609 2.75 3.375 2.75C3.57391 2.75 3.76468 2.82902 3.90533 2.96967C4.04598 3.11032 4.125 3.30109 4.125 3.5V8C4.125 8.19891 4.04598 8.38968 3.90533 8.53033C3.76468 8.67098 3.57391 8.75 3.375 8.75Z" stroke="#B1B5C4" stroke-linecap="round" stroke-linejoin="round"/>
<path d="M1.125 5.75H0.375" stroke="#B1B5C4" stroke-linecap="round" stroke-linejoin="round"/>
<path d="M1.875 4.25C1.67609 4.25 1.48532 4.32902 1.34467 4.46967C1.20402 4.61032 1.125 4.80109 1.125 5V6.5C1.125 6.69891 1.20402 6.88968 1.34467 7.03033C1.48532 7.17098 1.67609 7.25 1.875 7.25C2.07391 7.25 2.26468 7.17098 2.40533 7.03033C2.54598 6.88968 2.625 6.69891 2.625 6.5V5C2.625 4.80109 2.54598 4.61032 2.40533 4.46967C2.26468 4.32902 2.07391 4.25 1.875 4.25Z" stroke="#B1B5C4" stroke-linecap="round" stroke-linejoin="round"/>
<path d="M8.625 8.75C8.82391 8.75 9.01468 8.67098 9.15533 8.53033C9.29598 8.38968 9.375 8.19891 9.375 8V3.5C9.375 3.30109 9.29598 3.11032 9.15533 2.96967C9.01468 2.82902 8.82391 2.75 8.625 2.75C8.42609 2.75 8.23532 2.82902 8.09467 2.96967C7.95402 3.11032 7.875 3.30109 7.875 3.5V8C7.875 8.19891 7.95402 8.38968 8.09467 8.53033C8.23532 8.67098 8.42609 8.75 8.625 8.75Z" stroke="#B1B5C4" stroke-linecap="round" stroke-linejoin="round"/>
<path d="M10.875 5.75H11.625" stroke="#B1B5C4" stroke-linecap="round" stroke-linejoin="round"/>
<path d="M10.125 4.25C10.3239 4.25 10.5147 4.32902 10.6553 4.46967C10.796 4.61032 10.875 4.80109 10.875 5V6.5C10.875 6.69891 10.796 6.88968 10.6553 7.03033C10.5147 7.17098 10.3239 7.25 10.125 7.25C9.92609 7.25 9.73532 7.17098 9.59467 7.03033C9.45402 6.88968 9.375 6.69891 9.375 6.5V5C9.375 4.80109 9.45402 4.61032 9.59467 4.46967C9.73532 4.32902 9.92609 4.25 10.125 4.25Z" stroke="#B1B5C4" stroke-linecap="round" stroke-linejoin="round"/>
</g>
<defs>
<clipPath id="clip0_676_34185">
<rect width="12" height="12" fill="white"/>
</clipPath>
</defs>
</svg>
