<svg width="16" height="16" viewBox="0 0 16 16" fill="none" xmlns="http://www.w3.org/2000/svg">
<path d="M1.16472 12.9497L0.811051 13.3033C0.615717 13.4987 0.615717 13.8153 0.811051 14.0103L1.98972 15.189C2.18505 15.3843 2.50138 15.3843 2.69672 15.189L3.05038 14.8353L1.16472 12.9497ZM1.40038 10.357L0.811051 10.9463C0.615717 11.1417 0.615717 11.4583 0.811051 11.6533L1.63605 12.4783L3.52172 14.364L4.34672 15.189C4.54205 15.3843 4.85838 15.3843 5.05372 15.189L5.64305 14.5997L1.40038 10.357ZM6.58572 10.8283L10.8211 6.57832L9.41438 5.17166L5.17905 9.42166L6.58572 10.8283ZM14.1284 6.11432L9.88572 1.87166L9.76772 1.75366C9.57238 1.55832 9.25605 1.55832 9.06072 1.75366L8.35372 2.46066C8.15838 2.65599 8.15838 2.97266 8.35372 3.16766L9.65038 4.46432L11.5267 6.34066L12.8324 7.64632C13.0277 7.84166 13.3441 7.84166 13.5394 7.64632L14.2464 6.93932C14.4417 6.74399 14.4417 6.42732 14.2464 6.23232L14.1284 6.11432ZM13.3034 0.81099L12.9497 1.16466L14.8354 3.05032L15.1891 2.69666C15.3844 2.50132 15.3844 2.18466 15.1891 1.98966L14.0104 0.81099C13.8154 0.61599 13.4987 0.615656 13.3034 0.81099ZM6.35005 11.5353L4.47372 9.65899L3.16805 8.35332C2.97272 8.15799 2.65638 8.15799 2.46105 8.35332L1.75405 9.06032C1.55872 9.25566 1.55872 9.57232 1.75405 9.76732L1.87205 9.88532L6.11472 14.128L6.23272 14.246C6.42805 14.4413 6.74438 14.4413 6.93972 14.246L7.64672 13.539C7.84205 13.3437 7.84205 13.027 7.64672 12.832L6.35005 11.5353ZM14.364 3.52166L12.4784 1.63599L11.6534 0.81099C11.458 0.615656 11.1417 0.615656 10.9464 0.81099L10.357 1.40032L14.5997 5.64299L15.1891 5.05366C15.3844 4.85832 15.3844 4.54166 15.1891 4.34666L14.364 3.52166Z" fill="#777E91"/>
</svg>
