<svg width="20" height="20" viewBox="0 0 20 20" fill="none" xmlns="http://www.w3.org/2000/svg">
<path d="M7.5013 18.3334H12.5013C16.668 18.3334 18.3346 16.6667 18.3346 12.5V7.50002C18.3346 3.33335 16.668 1.66669 12.5013 1.66669H7.5013C3.33464 1.66669 1.66797 3.33335 1.66797 7.50002V12.5C1.66797 16.6667 3.33464 18.3334 7.5013 18.3334Z" stroke="#353945" stroke-linecap="round" stroke-linejoin="round"/>
<path d="M9.9987 12.9166C11.6095 12.9166 12.9154 11.6108 12.9154 9.99998C12.9154 8.38915 11.6095 7.08331 9.9987 7.08331C8.38787 7.08331 7.08203 8.38915 7.08203 9.99998C7.08203 11.6108 8.38787 12.9166 9.9987 12.9166Z" stroke="#353945" stroke-linecap="round" stroke-linejoin="round"/>
<path d="M14.6981 5.83335H14.7077" stroke="#353945" stroke-width="1.3" stroke-linecap="round" stroke-linejoin="round"/>
</svg>
