<svg width="12" height="12" viewBox="0 0 12 12" fill="none" xmlns="http://www.w3.org/2000/svg">
<g clip-path="url(#clip0_561_34614)">
<path d="M10.875 9.375H5.625L2.625 11.625V9.375H1.125C0.926088 9.375 0.735322 9.29598 0.59467 9.15533C0.454018 9.01468 0.375 8.82391 0.375 8.625V1.125C0.375 0.926088 0.454018 0.735322 0.59467 0.59467C0.735322 0.454018 0.926088 0.375 1.125 0.375H10.875C11.0739 0.375 11.2647 0.454018 11.4053 0.59467C11.546 0.735322 11.625 0.926088 11.625 1.125V8.625C11.625 8.82391 11.546 9.01468 11.4053 9.15533C11.2647 9.29598 11.0739 9.375 10.875 9.375Z" stroke="#B1B5C4" stroke-linecap="round" stroke-linejoin="round"/>
<path d="M2.625 3.75H9.375" stroke="#B1B5C4" stroke-linecap="round" stroke-linejoin="round"/>
<path d="M2.625 6H7.875" stroke="#B1B5C4" stroke-linecap="round" stroke-linejoin="round"/>
</g>
<defs>
<clipPath id="clip0_561_34614">
<rect width="12" height="12" fill="white"/>
</clipPath>
</defs>
</svg>
