<svg width="20" height="20" viewBox="0 0 20 20" fill="none" xmlns="http://www.w3.org/2000/svg">
<path d="M7.5013 18.3334H12.5013C16.668 18.3334 18.3346 16.6667 18.3346 12.5V7.50002C18.3346 3.33335 16.668 1.66669 12.5013 1.66669H7.5013C3.33464 1.66669 1.66797 3.33335 1.66797 7.50002V12.5C1.66797 16.6667 3.33464 18.3334 7.5013 18.3334Z" stroke="#353945" stroke-linecap="round" stroke-linejoin="round"/>
<path fill-rule="evenodd" clip-rule="evenodd" d="M9.73684 5.23821C9.73684 5.10481 9.85263 5 10 5H11.5789C11.7211 5 11.8421 5.10481 11.8421 5.23821C11.8421 6.68175 13.1368 7.8585 14.7368 7.8585C14.8789 7.8585 15 7.96332 15 8.09671V9.52596C15 9.6546 14.8789 9.76417 14.7368 9.76417C13.6579 9.76417 12.6579 9.4545 11.8421 8.92568V11.9033C11.8421 13.6089 10.3053 15 8.42105 15C6.53158 15 5 13.6089 5 11.9033C5 10.1929 6.53158 8.80657 8.42105 8.80657C8.56316 8.80657 8.68421 8.91139 8.68421 9.04478V10.474C8.68421 10.6027 8.56316 10.7122 8.42105 10.7122C7.68947 10.7122 7.10526 11.2411 7.10526 11.9033C7.10526 12.5607 7.68947 13.0943 8.42105 13.0943C9.14737 13.0943 9.73684 12.5607 9.73684 11.9033V5.23344V5.23821ZM10.2632 5.47642V11.9081C10.2632 12.8275 9.43684 13.5755 8.42105 13.5755C7.4 13.5755 6.57895 12.8275 6.57895 11.9081C6.57895 11.0648 7.26316 10.3692 8.15789 10.2549V9.29586C6.67895 9.41496 5.52632 10.5345 5.52632 11.9019C5.52632 13.3454 6.82105 14.5222 8.42105 14.5222C10.0158 14.5222 11.3158 13.3454 11.3158 11.9019V8.42401C11.3158 8.32873 11.3737 8.24297 11.4684 8.20486C11.5632 8.16198 11.6737 8.18104 11.7474 8.24297C12.4737 8.83373 13.4211 9.2101 14.4632 9.26251V8.30157C12.7789 8.18247 11.4421 6.97237 11.3105 5.44783H10.2474L10.2632 5.47642Z" fill="#353945" stroke="#353945" stroke-width="0.2"/>
</svg>
