<svg width="24" height="24" viewBox="0 0 24 24" fill="none" xmlns="http://www.w3.org/2000/svg">
<path d="M5.75 3C4.24011 3 3 4.24011 3 5.75V18.25C3 19.7599 4.24011 21 5.75 21H18.25C19.7599 21 21 19.7599 21 18.25V5.75C21 4.24011 19.7599 3 18.25 3H5.75ZM5.75 4.5H18.25C18.9491 4.5 19.5 5.05089 19.5 5.75V18.25C19.5 18.9491 18.9491 19.5 18.25 19.5H5.75C5.05089 19.5 4.5 18.9491 4.5 18.25V5.75C4.5 5.05089 5.05089 4.5 5.75 4.5ZM13.2178 6.51172C13.0265 6.51994 12.8456 6.60098 12.7122 6.73824C12.5787 6.8755 12.5028 7.05859 12.5 7.25V14C12.5 15.1138 11.6138 16 10.5 16C9.3862 16 8.5 15.1138 8.5 14C8.5 12.8862 9.3862 12 10.5 12C10.5994 12.0014 10.6981 11.983 10.7903 11.946C10.8825 11.9089 10.9664 11.8539 11.0372 11.7841C11.108 11.7143 11.1642 11.6312 11.2026 11.5395C11.2409 11.4478 11.2607 11.3494 11.2607 11.25C11.2607 11.1506 11.2409 11.0522 11.2026 10.9605C11.1642 10.8688 11.108 10.7857 11.0372 10.7159C10.9664 10.6461 10.8825 10.5911 10.7903 10.554C10.6981 10.517 10.5994 10.4986 10.5 10.5C8.5758 10.5 7 12.0758 7 14C7 15.9242 8.5758 17.5 10.5 17.5C12.4242 17.5 14 15.9242 14 14V10.168C14.6341 10.6585 15.3912 11 16.25 11C16.3494 11.0014 16.4481 10.983 16.5403 10.946C16.6325 10.9089 16.7164 10.8539 16.7872 10.7841C16.858 10.7143 16.9142 10.6312 16.9526 10.5395C16.9909 10.4478 17.0107 10.3494 17.0107 10.25C17.0107 10.1506 16.9909 10.0522 16.9526 9.96051C16.9142 9.86882 16.858 9.78566 16.7872 9.71588C16.7164 9.6461 16.6325 9.59108 16.5403 9.55402C16.4481 9.51696 16.3494 9.49859 16.25 9.5C14.9983 9.5 14 8.50175 14 7.25C13.9985 7.14973 13.9769 7.05078 13.9366 6.95899C13.8962 6.8672 13.8378 6.78445 13.7648 6.71562C13.6919 6.64679 13.6059 6.59328 13.512 6.55826C13.418 6.52323 13.318 6.50741 13.2178 6.51172Z" fill="black"/>
</svg>
