<svg width="12" height="12" viewBox="0 0 12 12" fill="none" xmlns="http://www.w3.org/2000/svg">
<path d="M0.75 6C0.75 7.39239 1.30312 8.72774 2.28769 9.71231C3.27226 10.6969 4.60761 11.25 6 11.25C7.39239 11.25 8.72774 10.6969 9.71231 9.71231C10.6969 8.72774 11.25 7.39239 11.25 6C11.25 4.60761 10.6969 3.27226 9.71231 2.28769C8.72774 1.30312 7.39239 0.75 6 0.75C4.60761 0.75 3.27226 1.30312 2.28769 2.28769C1.30312 3.27226 0.75 4.60761 0.75 6V6Z" stroke="#B1B5C4" stroke-linecap="round" stroke-linejoin="round"/>
<path d="M6 6V4.125" stroke="#B1B5C4" stroke-linecap="round" stroke-linejoin="round"/>
<path d="M6 6L8.3435 8.344" stroke="#B1B5C4" stroke-linecap="round" stroke-linejoin="round"/>
</svg>
