<svg width="16" height="16" viewBox="0 0 16 16" fill="none" xmlns="http://www.w3.org/2000/svg">
<path d="M11.2308 9.48132C11.26 10.246 10.985 10.9912 10.4659 11.5535C9.94681 12.1158 9.22603 12.4494 8.46143 12.4813" stroke="#E94359" stroke-linecap="round" stroke-linejoin="round"/>
<path d="M7.99997 15.4813C4.92331 15.4813 1.99997 13.2427 1.99997 10.4813C1.98253 9.43117 2.28942 8.40117 2.87878 7.5318C3.46815 6.66242 4.31131 5.99598 5.29331 5.62334C5.33309 5.60712 5.37638 5.60142 5.419 5.60679C5.46163 5.61217 5.50215 5.62844 5.53665 5.65403C5.57116 5.67963 5.59849 5.71369 5.616 5.75292C5.63351 5.79215 5.64062 5.83523 5.63664 5.87801C5.5674 6.40761 5.63143 6.94612 5.82293 7.44472C6.01443 7.94332 6.32735 8.38625 6.73331 8.73334C6.82627 8.81209 6.94482 8.85413 7.06662 8.85155C7.18843 8.84898 7.30509 8.80195 7.39464 8.71934C8.27464 7.90801 10.4326 5.22801 6.57931 0.93534C6.54528 0.897501 6.52362 0.85018 6.5172 0.7997C6.51079 0.74922 6.51993 0.697985 6.54341 0.652839C6.56689 0.607694 6.60359 0.570788 6.6486 0.547052C6.69361 0.523316 6.74479 0.513881 6.7953 0.520007C10.414 0.964673 14 5.04734 14 8.98134C14 12.3147 12 15.4813 7.99997 15.4813Z" stroke="#E94359" stroke-linecap="round" stroke-linejoin="round"/>
</svg>
