<svg width="12" height="14" viewBox="0 0 12 14" fill="none" xmlns="http://www.w3.org/2000/svg">
<path d="M8.42295 8.11108C8.44488 8.68461 8.2386 9.24346 7.84929 9.66519C7.45999 10.0869 6.9194 10.3372 6.34595 10.3611" stroke="#B1B5C4" stroke-linecap="round" stroke-linejoin="round"/>
<path d="M6.00004 12.611C3.69254 12.611 1.50004 10.932 1.50004 8.86104C1.48696 8.07341 1.71712 7.30091 2.15915 6.64888C2.60117 5.99685 3.23355 5.49701 3.97004 5.21754C3.99988 5.20537 4.03234 5.20109 4.06431 5.20513C4.09628 5.20916 4.12667 5.22136 4.15255 5.24056C4.17843 5.25975 4.19893 5.28529 4.21206 5.31472C4.2252 5.34414 4.23053 5.37645 4.22754 5.40854C4.17561 5.80574 4.22364 6.20962 4.36726 6.58357C4.51089 6.95752 4.74557 7.28972 5.05004 7.55004C5.11976 7.6091 5.20867 7.64063 5.30003 7.6387C5.39138 7.63676 5.47888 7.6015 5.54604 7.53954C6.20604 6.93104 7.82454 4.92104 4.93454 1.70154C4.90902 1.67316 4.89277 1.63767 4.88796 1.59981C4.88315 1.56195 4.89001 1.52352 4.90762 1.48966C4.92523 1.4558 4.95275 1.42812 4.98651 1.41032C5.02027 1.39252 5.05865 1.38544 5.09654 1.39004C7.81054 1.72354 10.5 4.78554 10.5 7.73604C10.5 10.236 9.00004 12.611 6.00004 12.611Z" stroke="#B1B5C4" stroke-linecap="round" stroke-linejoin="round"/>
</svg>
