<svg width="20" height="20" viewBox="0 0 20 20" fill="none" xmlns="http://www.w3.org/2000/svg">
<path d="M0.625 14.3759C0.625633 13.4459 0.856703 12.5307 1.29755 11.7119C1.73839 10.8931 2.37527 10.1963 3.15124 9.68385C3.92721 9.17138 4.81808 8.85919 5.7442 8.7752C6.67033 8.69121 7.60283 8.83803 8.45833 9.20253" stroke="#353945" stroke-linecap="round" stroke-linejoin="round"/>
<path d="M2.8125 4.06335C2.8125 4.97504 3.17466 5.84938 3.81932 6.49403C4.46398 7.13869 5.33832 7.50085 6.25 7.50085C7.16168 7.50085 8.03602 7.13869 8.68068 6.49403C9.32534 5.84938 9.6875 4.97504 9.6875 4.06335C9.6875 3.15167 9.32534 2.27733 8.68068 1.63267C8.03602 0.988019 7.16168 0.625854 6.25 0.625854C5.33832 0.625854 4.46398 0.988019 3.81932 1.63267C3.17466 2.27733 2.8125 3.15167 2.8125 4.06335V4.06335Z" stroke="#353945" stroke-linecap="round" stroke-linejoin="round"/>
<path d="M9.375 14.3741C9.375 15.7002 9.90178 16.972 10.8395 17.9097C11.7771 18.8474 13.0489 19.3741 14.375 19.3741C15.7011 19.3741 16.9729 18.8474 17.9105 17.9097C18.8482 16.972 19.375 15.7002 19.375 14.3741C19.375 13.0481 18.8482 11.7763 17.9105 10.8386C16.9729 9.90093 15.7011 9.37415 14.375 9.37415C13.0489 9.37415 11.7771 9.90093 10.8395 10.8386C9.90178 11.7763 9.375 13.0481 9.375 14.3741V14.3741Z" stroke="#353945" stroke-linecap="round" stroke-linejoin="round"/>
<path d="M16.25 12.4984L12.5 16.2484" stroke="#353945" stroke-linecap="round" stroke-linejoin="round"/>
<path d="M12.5 12.4984L16.25 16.2484" stroke="#353945" stroke-width="1.3" stroke-linecap="round" stroke-linejoin="round"/>
</svg>
