<svg width="16" height="16" viewBox="0 0 16 16" fill="none" xmlns="http://www.w3.org/2000/svg">
<path d="M12.5 6.5H3.5C2.94771 6.5 2.5 6.94773 2.5 7.5V14.5C2.5 15.0523 2.94771 15.5 3.5 15.5H12.5C13.0523 15.5 13.5 15.0523 13.5 14.5V7.5C13.5 6.94773 13.0523 6.5 12.5 6.5Z" stroke="#777E91" stroke-linecap="round" stroke-linejoin="round"/>
<path d="M4.5 6.5V4C4.5 3.07174 4.86875 2.18151 5.52513 1.52513C6.18151 0.868747 7.07173 0.5 8 0.5C8.92827 0.5 9.81847 0.868747 10.4749 1.52513C11.1313 2.18151 11.5 3.07174 11.5 4V6.5" stroke="#777E91" stroke-linecap="round" stroke-linejoin="round"/>
<path d="M8 11C7.86193 11 7.75 10.8881 7.75 10.75C7.75 10.6119 7.86193 10.5 8 10.5" stroke="#777E91"/>
<path d="M8 11C8.13807 11 8.25 10.8881 8.25 10.75C8.25 10.6119 8.13807 10.5 8 10.5" stroke="#777E91"/>
</svg>
