<svg width="34" height="34" viewBox="0 0 34 34" fill="none" xmlns="http://www.w3.org/2000/svg">
<mask id="mask0_885_19625" style="mask-type:alpha" maskUnits="userSpaceOnUse" x="0" y="0" width="34" height="34">
<rect width="34" height="34" fill="white"/>
</mask>
<g mask="url(#mask0_885_19625)">
<path fill-rule="evenodd" clip-rule="evenodd" d="M0 8C0 5.19974 0 3.79961 0.544967 2.73005C1.02433 1.78924 1.78924 1.02433 2.73005 0.544967C3.79961 0 5.19974 0 8 0L26 0C28.8003 0 30.2004 0 31.27 0.544967C32.2108 1.02433 32.9757 1.78924 33.455 2.73005C34 3.79961 34 5.19974 34 8V26C34 28.8003 34 30.2004 33.455 31.27C32.9757 32.2108 32.2108 32.9757 31.27 33.455C30.2004 34 28.8003 34 26 34H8C5.19974 34 3.79961 34 2.73005 33.455C1.78924 32.9757 1.02433 32.2108 0.544967 31.27C0 30.2004 0 28.8003 0 26L0 8Z" fill="#E94359"/>
<mask id="mask1_885_19625" style="mask-type:alpha" maskUnits="userSpaceOnUse" x="0" y="0" width="34" height="34">
<path fill-rule="evenodd" clip-rule="evenodd" d="M0 17C0 7.61116 7.61116 0 17 0V0C26.3888 0 34 7.61116 34 17V17C34 26.3888 26.3888 34 17 34V34C7.61116 34 0 26.3888 0 17V17Z" fill="white"/>
</mask>
<g mask="url(#mask1_885_19625)">
<path fill-rule="evenodd" clip-rule="evenodd" d="M14.5128 7.83594L13.4393 16.5678L13.1484 18.6711H15.6989L14.5127 27.4258L21.6843 14.7289C20.7298 14.7293 19.2516 14.74 18.0474 14.7487C17.2092 14.7548 16.5039 14.7599 16.2002 14.7599C16.1809 14.6673 16.2002 14.5972 16.2002 14.5972C16.2002 14.5972 17.6475 14.4797 19.3037 14.182L20.0839 7.83594H14.5128Z" fill="white"/>
</g>
</g>
</svg>
