<svg width="179" height="34" viewBox="0 0 179 34" fill="none" xmlns="http://www.w3.org/2000/svg">
<path d="M3.02367 0.619751L0 26.4552H16.5933L17.5152 18.4372L9.95601 18.6696L12.0578 0.619751H3.02367Z" fill="#E94359"/>
<path d="M22.5784 0.619751L19.5547 26.4552H28.5888L31.6124 0.619751H22.5784Z" fill="#E94359"/>
<path d="M53.4832 0.619751L51.0126 7.01079C49.7959 10.187 49.2796 11.9687 48.837 14.3702H48.4684C48.6528 13.2469 48.6898 12.7047 48.6898 11.5426C48.6898 10.5356 48.6159 9.60595 48.5053 8.67634L47.5465 0.619751H38.1068L30.9531 26.4552H39.9874L41.7941 18.2823C42.3472 15.7259 42.5316 14.5639 42.8266 12.1624L42.9005 11.5814H43.1955C43.1216 12.4722 43.1216 12.8208 43.1216 13.5181V14.0216C43.1216 14.6026 43.1586 15.3773 43.2322 16.3456C43.3061 17.159 43.343 17.8175 43.4166 18.2823L44.3753 26.4552H49.9803L53.1146 18.6309C54.1838 15.9583 54.4788 14.9512 55.1057 12.3173L55.2902 11.5814L55.6219 11.6588C55.1427 14.4089 54.9213 16.0745 54.7738 18.8246L54.2946 26.4552H62.96L62.8862 0.619751H53.4832Z" fill="#E94359"/>
<path d="M81.1719 0.619751L80.25 8.7538L84.4906 8.48267L82.3887 26.455H91.4227L93.5247 8.48267L97.7653 8.7538L98.7239 0.619751H81.1719Z" fill="#E94359"/>
<path d="M101.461 0.619751L98.4375 26.455H115.031L115.953 18.4372L108.394 18.6696L110.495 0.619751H101.461Z" fill="#E94359"/>
<path d="M121.008 0.619751L117.984 26.455H134.43L135.241 19.5218H127.719L128.051 16.578H134.688L135.426 10.187H128.788L129.12 7.35939H136.384L137.159 0.619751H121.008Z" fill="#E94359"/>
<path d="M157.287 1.82048C154.816 0.619738 152.162 0 149.654 0C144.049 0 139.551 4.10576 139.551 9.25733C139.551 12.2398 140.768 14.4089 143.09 15.6097C143.975 16.1132 144.897 16.423 146.593 16.7717C148.216 17.159 148.917 17.7013 148.917 18.5921C148.917 19.5218 148.105 20.1028 146.852 20.1028C144.528 20.1028 142.169 18.9407 140.694 17.0428L137.375 24.015C138.371 24.5959 139.145 24.9832 139.661 25.2542C142.058 26.4164 144.823 27.1135 147.11 27.1135C153.046 27.1135 157.84 22.8916 157.84 17.7013C157.84 15.3385 156.808 13.092 155.148 11.93C154.263 11.2715 152.862 10.6905 151.166 10.2257C148.917 9.64468 148.474 9.37355 148.474 8.56013C148.474 7.78545 149.212 7.20446 150.17 7.20446C152.088 7.20446 154.005 8.05659 155.554 9.52847L158.836 2.67263C158.172 2.28528 157.656 2.01415 157.287 1.82048Z" fill="#E94359"/>
<path d="M177.365 1.82048C174.895 0.619738 172.24 0 169.732 0C164.127 0 159.629 4.10576 159.629 9.25733C159.629 12.2398 160.845 14.4089 163.169 15.6097C164.054 16.1132 164.975 16.423 166.672 16.7717C168.294 17.159 168.995 17.7013 168.995 18.5921C168.995 19.5218 168.183 20.1028 166.93 20.1028C164.607 20.1028 162.247 18.9407 160.772 17.0428L157.453 24.015C158.449 24.5959 159.223 24.9832 159.739 25.2542C162.136 26.4164 164.902 27.1135 167.188 27.1135C173.125 27.1135 177.918 22.8916 177.918 17.7013C177.918 15.3385 176.886 13.092 175.226 11.93C174.341 11.2715 172.94 10.6905 171.244 10.2257C168.995 9.64468 168.552 9.37355 168.552 8.56013C168.552 7.78545 169.29 7.20446 170.248 7.20446C172.166 7.20446 174.083 8.05659 175.632 9.52847L178.914 2.67263C178.25 2.28528 177.734 2.01415 177.365 1.82048Z" fill="#E94359"/>
<path fill-rule="evenodd" clip-rule="evenodd" d="M68.1266 0.619934L66.3857 15.4936L65.9141 19.0765H70.05L68.1264 33.989L79.7559 12.3613C78.2081 12.362 75.811 12.3802 73.8583 12.3951C72.499 12.4054 71.3553 12.4141 70.8628 12.4141C70.8316 12.2564 70.8628 12.1369 70.8628 12.1369C70.8628 12.1369 73.2098 11.9369 75.8955 11.4298L77.1607 0.619934H68.1266Z" fill="#E94359"/>
</svg>
