<svg width="20" height="18" viewBox="0 0 20 18" fill="none" xmlns="http://www.w3.org/2000/svg">
<path d="M2.4974 1.5L17.4974 16.5M8.81739 7.82248C8.50466 8.13499 8.32888 8.55894 8.32872 9.00106C8.32856 9.44317 8.50404 9.86724 8.81656 10.18C9.12907 10.4927 9.55302 10.6685 9.99514 10.6687C10.4373 10.6688 10.8613 10.4933 11.1741 10.1808M7.7999 3.47083C8.51441 3.26643 9.25423 3.16403 9.9974 3.16667C13.3307 3.16667 16.1082 5.11083 18.3307 9C17.6824 10.1342 16.9874 11.1033 16.2449 11.9067M14.4616 13.4575C13.1024 14.3742 11.6157 14.8333 9.9974 14.8333C6.66406 14.8333 3.88656 12.8892 1.66406 9C2.8049 7.00416 4.09156 5.52083 5.52406 4.54917" stroke="#64748B" stroke-width="1.5" stroke-linecap="round" stroke-linejoin="round"/>
</svg>
