<svg width="20" height="20" viewBox="0 0 20 20" fill="none" xmlns="http://www.w3.org/2000/svg">
<g clip-path="url(#clip0_3071_54109)">
<path d="M2.3125 17.5L17.9375 2.5" stroke="#353945" stroke-width="1.5" stroke-linecap="round" stroke-linejoin="round"/>
<path d="M7.5 15.8749C8.30915 16.1275 9.15236 16.2539 10 16.2499C13.4167 16.3082 16.8833 13.9082 19.0167 11.5499C19.2468 11.2968 19.3743 10.967 19.3743 10.6249C19.3743 10.2828 19.2468 9.95301 19.0167 9.6999C18.2453 8.84729 17.3879 8.07655 16.4583 7.3999" stroke="#353945" stroke-width="1.5" stroke-linecap="round" stroke-linejoin="round"/>
<path d="M14.241 6.05842C12.9296 5.37808 11.4766 5.01555 9.99932 5.00009C6.66598 4.94175 3.16598 7.29175 0.98265 9.70009C0.752518 9.9532 0.625 10.283 0.625 10.6251C0.625 10.9672 0.752518 11.297 0.98265 11.5501C2.16589 12.8728 3.5528 13.9981 5.09098 14.8834" stroke="#353945" stroke-width="1.5" stroke-linecap="round" stroke-linejoin="round"/>
<path d="M7.4963 12.5583C7.04423 11.9311 6.83383 11.1618 6.9038 10.3919C6.97376 9.62194 7.31938 8.90316 7.87709 8.36776C8.4348 7.83236 9.16708 7.51635 9.93922 7.47786C10.7114 7.43937 11.4714 7.68098 12.0796 8.15826" stroke="#353945" stroke-width="1.5" stroke-linecap="round" stroke-linejoin="round"/>
<path d="M13.125 10.625C13.125 11.0354 13.0442 11.4417 12.8871 11.8209C12.7301 12.2 12.4999 12.5445 12.2097 12.8347C11.9195 13.1249 11.575 13.3551 11.1959 13.5121C10.8167 13.6692 10.4104 13.75 10 13.75" stroke="#353945" stroke-width="1.5" stroke-linecap="round" stroke-linejoin="round"/>
</g>
<defs>
<clipPath id="clip0_3071_54109">
<rect width="20" height="20" fill="white"/>
</clipPath>
</defs>
</svg>
