<svg width="153" height="168" viewBox="0 0 153 168" fill="none" xmlns="http://www.w3.org/2000/svg">
<path fill-rule="evenodd" clip-rule="evenodd" d="M4.72071 2.54959L-2.06123 18.7304L-3.757 22.6107L1.15909 23.9928L-5.85231 40.1564L14.8236 19.6683C12.9837 19.1518 10.1285 18.3713 7.80276 17.7355C6.18386 17.2929 4.82162 16.9205 4.23626 16.7559C4.24905 16.5677 4.32407 16.4436 4.32407 16.4436C4.32407 16.4436 7.17717 17.0024 10.5301 17.3284L15.459 5.56853L4.72071 2.54959Z" fill="#E6E8EC"/>
<path fill-rule="evenodd" clip-rule="evenodd" d="M-11.1377 58.9601L-17.9196 75.1409L-19.6154 79.0212L-14.6993 80.4033L-21.7107 96.5668L-1.03476 76.0788C-2.87473 75.5623 -5.72986 74.7818 -8.05564 74.146C-9.67454 73.7034 -11.0368 73.331 -11.6221 73.1664C-11.6094 72.9782 -11.5343 72.8541 -11.5343 72.8541C-11.5343 72.8541 -8.68123 73.4129 -5.32828 73.7389L-0.399437 61.979L-11.1377 58.9601Z" fill="#E6E8EC"/>
<path fill-rule="evenodd" clip-rule="evenodd" d="M39.9775 12.4615L33.1956 28.6424L31.4998 32.5226L36.4159 33.9047L29.4045 50.0683L50.0805 29.5803C48.2405 29.0638 45.3854 28.2832 43.0596 27.6474C41.4407 27.2048 40.0785 26.8324 39.4931 26.6679C39.5059 26.4797 39.5809 26.3555 39.5809 26.3555C39.5809 26.3555 42.434 26.9144 45.787 27.2403L50.7158 15.4805L39.9775 12.4615Z" fill="#E6E8EC"/>
<path fill-rule="evenodd" clip-rule="evenodd" d="M24.1182 68.872L17.3362 85.0528L15.6405 88.9331L20.5566 90.3152L13.5452 106.479L34.2211 85.9907C32.3811 85.4742 29.526 84.6937 27.2002 84.0579C25.5813 83.6153 24.2191 83.2429 23.6337 83.0783C23.6465 82.8901 23.7215 82.766 23.7215 82.766C23.7215 82.766 26.5746 83.3248 29.9276 83.6508L34.8564 71.8909L24.1182 68.872Z" fill="#E6E8EC"/>
<path fill-rule="evenodd" clip-rule="evenodd" d="M8.25879 125.282L1.47686 141.463L-0.218915 145.343L4.69718 146.725L-2.31422 162.889L18.3617 142.401C16.5218 141.884 13.6666 141.104 11.3408 140.468C9.72195 140.025 8.35971 139.653 7.77434 139.488C7.78713 139.3 7.86215 139.176 7.86215 139.176C7.86215 139.176 10.7153 139.735 14.0682 140.061L18.997 128.301L8.25879 125.282Z" fill="#E6E8EC"/>
<path fill-rule="evenodd" clip-rule="evenodd" d="M91.0928 -34.0367L84.3108 -17.8559L82.6151 -13.9756L87.5312 -12.5935L80.5198 3.57007L101.196 -16.918C99.3557 -17.4344 96.5006 -18.215 94.1748 -18.8508C92.5559 -19.2934 91.1937 -19.6658 90.6083 -19.8304C90.6211 -20.0186 90.6961 -20.1427 90.6961 -20.1427C90.6961 -20.1427 93.5492 -19.5838 96.9022 -19.2579L101.831 -31.0178L91.0928 -34.0367Z" fill="#E6E8EC"/>
<path fill-rule="evenodd" clip-rule="evenodd" d="M75.2334 22.3735L68.4515 38.5543L66.7557 42.4345L71.6718 43.8167L64.6604 59.9802L85.3363 39.4922C83.4964 38.9757 80.6412 38.1952 78.3155 37.5594C76.6966 37.1168 75.3343 36.7444 74.749 36.5798C74.7617 36.3916 74.8368 36.2675 74.8368 36.2675C74.8368 36.2675 77.6899 36.8263 81.0428 37.1523L85.9717 25.3924L75.2334 22.3735Z" fill="#E6E8EC"/>
<path fill-rule="evenodd" clip-rule="evenodd" d="M59.375 78.784L52.5931 94.9648L50.8973 98.845L55.8134 100.227L48.802 116.391L69.4779 95.9027C67.638 95.3862 64.7828 94.6057 62.4571 93.9699C60.8382 93.5273 59.4759 93.1549 58.8906 92.9903C58.9033 92.8021 58.9784 92.678 58.9784 92.678C58.9784 92.678 61.8315 93.2368 65.1844 93.5627L70.1133 81.8029L59.375 78.784Z" fill="#E6E8EC"/>
<path fill-rule="evenodd" clip-rule="evenodd" d="M43.5156 135.194L36.7337 151.375L35.0379 155.255L39.954 156.637L32.9426 172.801L53.6186 152.313C51.7786 151.796 48.9235 151.016 46.5977 150.38C44.9788 149.937 43.6165 149.565 43.0312 149.4C43.044 149.212 43.119 149.088 43.119 149.088C43.119 149.088 45.9721 149.647 49.325 149.973L54.2539 138.213L43.5156 135.194Z" fill="#E6E8EC"/>
<path fill-rule="evenodd" clip-rule="evenodd" d="M126.35 -24.1248L119.568 -7.94392L117.872 -4.06367L122.788 -2.68156L115.777 13.482L136.453 -7.00602C134.613 -7.5225 131.757 -8.30305 129.432 -8.93885C127.813 -9.38144 126.451 -9.75385 125.865 -9.91842C125.878 -10.1066 125.953 -10.2307 125.953 -10.2307C125.953 -10.2307 128.806 -9.67191 132.159 -9.34596L137.088 -21.1058L126.35 -24.1248Z" fill="#E6E8EC"/>
<path fill-rule="evenodd" clip-rule="evenodd" d="M110.49 32.2857L103.708 48.4665L102.013 52.3468L106.929 53.7289L99.9172 69.8925L120.593 49.4044C118.753 48.8879 115.898 48.1074 113.572 47.4716C111.953 47.029 110.591 46.6566 110.006 46.492C110.019 46.3038 110.094 46.1797 110.094 46.1797C110.094 46.1797 112.947 46.7385 116.3 47.0645L121.228 35.3046L110.49 32.2857Z" fill="#E6E8EC"/>
<path fill-rule="evenodd" clip-rule="evenodd" d="M94.6318 88.6959L87.8499 104.877L86.1541 108.757L91.0702 110.139L84.0588 126.303L104.735 105.815C102.895 105.298 100.04 104.518 97.7139 103.882C96.095 103.439 94.7328 103.067 94.1474 102.902C94.1602 102.714 94.2352 102.59 94.2352 102.59C94.2352 102.59 97.0883 103.149 100.441 103.475L105.37 91.7148L94.6318 88.6959Z" fill="#E6E8EC"/>
<path fill-rule="evenodd" clip-rule="evenodd" d="M78.7725 145.106L71.9905 161.287L70.2948 165.167L75.2109 166.549L68.1994 182.713L88.8754 162.225C87.0354 161.708 84.1803 160.928 81.8545 160.292C80.2356 159.849 78.8734 159.477 78.288 159.312C78.3008 159.124 78.3758 159 78.3758 159C78.3758 159 81.2289 159.559 84.5819 159.885L89.5107 148.125L78.7725 145.106Z" fill="#E6E8EC"/>
<path fill-rule="evenodd" clip-rule="evenodd" d="M161.605 -14.2128L154.824 1.96802L153.128 5.84827L158.044 7.23038L151.032 23.394L171.708 2.90592C169.868 2.38944 167.013 1.60889 164.688 0.973093C163.069 0.530499 161.706 0.158093 161.121 -0.00647598C161.134 -0.194684 161.209 -0.318806 161.209 -0.318806C161.209 -0.318806 164.062 0.240034 167.415 0.56598L172.344 -11.1939L161.605 -14.2128Z" fill="#E6E8EC"/>
<path fill-rule="evenodd" clip-rule="evenodd" d="M145.747 42.1976L138.965 58.3785L137.269 62.2587L142.185 63.6408L135.174 79.8044L155.85 59.3164C154.01 58.7999 151.155 58.0194 148.829 57.3836C147.21 56.941 145.848 56.5686 145.263 56.404C145.275 56.2158 145.35 56.0917 145.35 56.0917C145.35 56.0917 148.204 56.6505 151.556 56.9764L156.485 45.2166L145.747 42.1976Z" fill="#E6E8EC"/>
<path fill-rule="evenodd" clip-rule="evenodd" d="M129.888 98.6078L123.106 114.789L121.41 118.669L126.326 120.051L119.315 136.215L139.991 115.727C138.151 115.21 135.296 114.43 132.97 113.794C131.351 113.351 129.989 112.979 129.403 112.814C129.416 112.626 129.491 112.502 129.491 112.502C129.491 112.502 132.344 113.061 135.697 113.387L140.626 101.627L129.888 98.6078Z" fill="#E6E8EC"/>
<path fill-rule="evenodd" clip-rule="evenodd" d="M114.028 155.018L107.246 171.199L105.551 175.079L110.467 176.461L103.455 192.625L124.131 172.137C122.291 171.62 119.436 170.84 117.11 170.204C115.491 169.761 114.129 169.389 113.544 169.224C113.557 169.036 113.632 168.912 113.632 168.912C113.632 168.912 116.485 169.471 119.838 169.797L124.767 158.037L114.028 155.018Z" fill="#E6E8EC"/>
<path fill-rule="evenodd" clip-rule="evenodd" d="M165.145 108.52L158.363 124.701L156.667 128.581L161.583 129.963L154.572 146.127L175.247 125.638C173.407 125.122 170.552 124.341 168.227 123.706C166.608 123.263 165.245 122.891 164.66 122.726C164.673 122.538 164.748 122.414 164.748 122.414C164.748 122.414 167.601 122.973 170.954 123.299L175.883 111.539L165.145 108.52Z" fill="#E6E8EC"/>
<path fill-rule="evenodd" clip-rule="evenodd" d="M149.285 164.93L142.503 181.111L140.807 184.991L145.724 186.373L138.712 202.537L159.388 182.049C157.548 181.532 154.693 180.752 152.367 180.116C150.748 179.673 149.386 179.301 148.801 179.136C148.814 178.948 148.889 178.824 148.889 178.824C148.889 178.824 151.742 179.383 155.095 179.709L160.023 167.949L149.285 164.93Z" fill="#E6E8EC"/>
</svg>
