<svg width="32" height="32" viewBox="0 0 32 32" fill="none" xmlns="http://www.w3.org/2000/svg">
<path d="M31.5 16C31.5 24.5604 24.5604 31.5 16 31.5C7.43959 31.5 0.5 24.5604 0.5 16C0.5 7.43959 7.43959 0.5 16 0.5C24.5604 0.5 31.5 7.43959 31.5 16Z" fill="white" stroke="#E6E8EC"/>
<path d="M15.9993 10.6665C16.3675 10.6665 16.666 10.965 16.666 11.3332V15.3332H20.666C21.0342 15.3332 21.3327 15.6316 21.3327 15.9998C21.3327 16.368 21.0342 16.6665 20.666 16.6665H16.666V20.6665C16.666 21.0347 16.3675 21.3332 15.9993 21.3332C15.6312 21.3332 15.3327 21.0347 15.3327 20.6665V16.6665H11.3327C10.9645 16.6665 10.666 16.368 10.666 15.9998C10.666 15.6316 10.9645 15.3332 11.3327 15.3332H15.3327V11.3332C15.3327 10.965 15.6312 10.6665 15.9993 10.6665Z" fill="#E94359"/>
</svg>
