<svg width="20" height="20" viewBox="0 0 20 20" fill="none" xmlns="http://www.w3.org/2000/svg">
<path d="M9.00568 1.66675C8.57485 1.66675 8.16322 1.83701 7.85822 2.14201L7.50015 2.50008H3.33348C3.22306 2.49852 3.11342 2.51892 3.01095 2.5601C2.90847 2.60128 2.81521 2.66241 2.73656 2.73995C2.65792 2.81749 2.59548 2.90988 2.55285 3.01176C2.51023 3.11364 2.48828 3.22298 2.48828 3.33341C2.48828 3.44385 2.51023 3.55319 2.55285 3.65507C2.59548 3.75695 2.65792 3.84934 2.73656 3.92688C2.81521 4.00442 2.90847 4.06555 3.01095 4.10673C3.11342 4.14791 3.22306 4.16831 3.33348 4.16675H16.6668C16.7772 4.16831 16.8869 4.14791 16.9894 4.10673C17.0918 4.06555 17.1851 4.00442 17.2637 3.92688C17.3424 3.84934 17.4048 3.75695 17.4474 3.65507C17.4901 3.55319 17.512 3.44385 17.512 3.33341C17.512 3.22298 17.4901 3.11364 17.4474 3.01176C17.4048 2.90988 17.3424 2.81749 17.2637 2.73995C17.1851 2.66241 17.0918 2.60128 16.9894 2.5601C16.8869 2.51892 16.7772 2.49852 16.6668 2.50008H12.5001L12.1421 2.14201C11.8379 1.83701 11.4254 1.66675 10.9946 1.66675H9.00568ZM3.63785 5.83342L4.91063 16.8865C5.02063 17.7115 5.73098 18.3334 6.56265 18.3334H13.436C14.2677 18.3334 14.9788 17.7125 15.0897 16.88L16.3625 5.83342H3.63785Z" fill="white"/>
</svg>
