<svg width="20" height="20" viewBox="0 0 20 20" fill="none" xmlns="http://www.w3.org/2000/svg">
<g clip-path="url(#clip0_2487_6821)">
<path d="M11.875 13.75H11.25C10.9185 13.75 10.6005 13.6183 10.3661 13.3839C10.1317 13.1495 10 12.8315 10 12.5V9.375C10 9.20925 9.93417 9.05025 9.81692 8.93308C9.69975 8.81583 9.54075 8.75 9.375 8.75H8.75" stroke="#353945" stroke-width="1.5" stroke-linecap="round" stroke-linejoin="round"/>
<path d="M9.6875 6.25C9.51492 6.25 9.375 6.11009 9.375 5.9375C9.375 5.76491 9.51492 5.625 9.6875 5.625" stroke="#353945" stroke-width="1.5"/>
<path d="M9.6875 6.25C9.86008 6.25 10 6.11009 10 5.9375C10 5.76491 9.86008 5.625 9.6875 5.625" stroke="#353945" stroke-width="1.5"/>
<path d="M10 19.375C15.1777 19.375 19.375 15.1777 19.375 10C19.375 4.82233 15.1777 0.625 10 0.625C4.82233 0.625 0.625 4.82233 0.625 10C0.625 15.1777 4.82233 19.375 10 19.375Z" stroke="#353945" stroke-width="1.5" stroke-linecap="round" stroke-linejoin="round"/>
</g>
<defs>
<clipPath id="clip0_2487_6821">
<rect width="20" height="20" fill="white"/>
</clipPath>
</defs>
</svg>
