<svg width="16" height="18" viewBox="0 0 16 18" fill="none" xmlns="http://www.w3.org/2000/svg">
<path d="M11 3.7002C10.7348 3.7002 10.4804 3.80555 10.2929 3.99309C10.1054 4.18063 10 4.43498 10 4.7002V15.8002C9.99996 15.8894 9.97606 15.977 9.93078 16.0538C9.8855 16.1307 9.82048 16.194 9.74247 16.2373C9.66445 16.2805 9.57629 16.3021 9.48712 16.2998C9.39795 16.2975 9.31101 16.2714 9.23533 16.2242L6 14.2002L2.76467 16.2222C2.68913 16.2693 2.60238 16.2954 2.51338 16.2978C2.42438 16.3002 2.33636 16.2788 2.25841 16.2358C2.18046 16.1927 2.11541 16.1297 2.06998 16.0531C2.02455 15.9765 2.00039 15.8892 2 15.8002V4.7002C2 3.90455 2.31607 3.14148 2.87868 2.57888C3.44129 2.01627 4.20435 1.7002 5 1.7002H11C11.7956 1.7002 12.5587 2.01627 13.1213 2.57888C13.6839 3.14148 14 3.90455 14 4.7002V7.2002C14 7.3328 13.9473 7.45998 13.8536 7.55375C13.7598 7.64752 13.6326 7.7002 13.5 7.7002H10" stroke="#353945" stroke-width="1.5" stroke-linecap="round" stroke-linejoin="round"/>
</svg>
