<svg width="20" height="20" viewBox="0 0 20 20" fill="none" xmlns="http://www.w3.org/2000/svg">
<path d="M1.875 18.125L18.125 1.875L1.875 18.125Z" stroke="#353945" stroke-width="1.5" stroke-linecap="round" stroke-linejoin="round"/>
<path d="M13.125 15.625C13.125 16.288 13.3884 16.9239 13.8572 17.3928C14.3261 17.8616 14.962 18.125 15.625 18.125C16.288 18.125 16.9239 17.8616 17.3928 17.3928C17.8616 16.9239 18.125 16.288 18.125 15.625C18.125 14.962 17.8616 14.3261 17.3928 13.8572C16.9239 13.3884 16.288 13.125 15.625 13.125C14.962 13.125 14.3261 13.3884 13.8572 13.8572C13.3884 14.3261 13.125 14.962 13.125 15.625V15.625Z" stroke="#353945" stroke-width="1.5" stroke-linecap="round" stroke-linejoin="round"/>
<path d="M1.875 4.375C1.875 5.03804 2.13839 5.67393 2.60723 6.14277C3.07607 6.61161 3.71196 6.875 4.375 6.875C5.03804 6.875 5.67393 6.61161 6.14277 6.14277C6.61161 5.67393 6.875 5.03804 6.875 4.375C6.875 3.71196 6.61161 3.07607 6.14277 2.60723C5.67393 2.13839 5.03804 1.875 4.375 1.875C3.71196 1.875 3.07607 2.13839 2.60723 2.60723C2.13839 3.07607 1.875 3.71196 1.875 4.375V4.375Z" stroke="#353945" stroke-width="1.5" stroke-linecap="round" stroke-linejoin="round"/>
</svg>
