<svg width="18" height="18" viewBox="0 0 18 18" fill="none" xmlns="http://www.w3.org/2000/svg">
<path d="M7.33268 2.33329C4.57126 2.33329 2.33268 4.57187 2.33268 7.33329C2.33268 10.0947 4.57126 12.3333 7.33268 12.3333C10.0941 12.3333 12.3327 10.0947 12.3327 7.33329C12.3327 4.57187 10.0941 2.33329 7.33268 2.33329ZM0.666016 7.33329C0.666016 3.65139 3.65078 0.666626 7.33268 0.666626C11.0146 0.666626 13.9993 3.65139 13.9993 7.33329C13.9993 8.87389 13.4768 10.2924 12.5992 11.4213L17.0886 15.9107C17.414 16.2361 17.414 16.7638 17.0886 17.0892C16.7632 17.4147 16.2355 17.4147 15.9101 17.0892L11.4207 12.5998C10.2918 13.4774 8.87327 14 7.33268 14C3.65078 14 0.666016 11.0152 0.666016 7.33329Z" fill="#B1B5C4"/>
</svg>
