<svg width="82" height="25" viewBox="0 0 82 25" fill="none" xmlns="http://www.w3.org/2000/svg">
<path d="M0.0188845 17.0354C0.241401 13.5365 2.42976 11.5501 4.754 10.0511C7.93803 7.92058 11.3472 6.14748 14.9197 4.76389C31.2989 -1.18528 47.4359 0.0765262 63.1635 7.21596C67.2066 9.0524 70.9642 11.5239 75.2154 13.9016C75.7577 9.31945 73.3732 5.05261 73.7044 0.151297C75.6253 0.9199 76.0613 2.47823 76.4706 3.85466C78.1093 9.22439 79.6861 14.6104 81.1211 20.0529C81.8153 22.6882 81.1356 23.8028 78.6011 24.2106C73.5058 25.0947 68.2616 24.1877 63.7591 21.6438C63.5746 21.5065 63.5529 21.0666 63.3746 20.4853C66.842 17.7179 70.6218 21.8013 74.4769 20.0205C69.8541 14.6242 63.9107 11.6731 57.6414 9.27727C51.241 6.65138 44.4398 5.13616 37.53 4.79675C30.7882 4.7519 24.0763 5.6962 17.6086 7.59954C11.1286 9.4273 5.12561 12.6475 0.0188845 17.0354Z" fill="#E6E8EC"/>
</svg>
