<svg width="24" height="8" viewBox="0 0 24 8" fill="none" xmlns="http://www.w3.org/2000/svg">
<path d="M0.75 4.02301C0.75 4.7192 1.02656 5.38688 1.51884 5.87917C2.01113 6.37145 2.67881 6.64801 3.375 6.64801C4.07119 6.64801 4.73887 6.37145 5.23116 5.87917C5.72344 5.38688 6 4.7192 6 4.02301C6 3.32682 5.72344 2.65914 5.23116 2.16685C4.73887 1.67457 4.07119 1.39801 3.375 1.39801C2.67881 1.39801 2.01113 1.67457 1.51884 2.16685C1.02656 2.65914 0.75 3.32682 0.75 4.02301V4.02301Z" stroke="#B1B5C4" stroke-width="1.5" stroke-linecap="round" stroke-linejoin="round"/>
<path d="M18 4.02301C18 4.36773 18.0679 4.70907 18.1998 5.02755C18.3317 5.34603 18.5251 5.63541 18.7688 5.87917C19.0126 6.12292 19.302 6.31628 19.6205 6.44819C19.9389 6.58011 20.2803 6.64801 20.625 6.64801C20.9697 6.64801 21.3111 6.58011 21.6295 6.44819C21.948 6.31628 22.2374 6.12292 22.4812 5.87917C22.7249 5.63541 22.9183 5.34603 23.0502 5.02755C23.1821 4.70907 23.25 4.36773 23.25 4.02301C23.25 3.67829 23.1821 3.33695 23.0502 3.01847C22.9183 2.69999 22.7249 2.41061 22.4812 2.16685C22.2374 1.9231 21.948 1.72975 21.6295 1.59783C21.3111 1.46591 20.9697 1.39801 20.625 1.39801C20.2803 1.39801 19.9389 1.46591 19.6205 1.59783C19.302 1.72975 19.0126 1.9231 18.7688 2.16685C18.5251 2.41061 18.3317 2.69999 18.1998 3.01847C18.0679 3.33695 18 3.67829 18 4.02301V4.02301Z" stroke="#B1B5C4" stroke-width="1.5" stroke-linecap="round" stroke-linejoin="round"/>
<path d="M9.375 4.02301C9.375 4.7192 9.65156 5.38688 10.1438 5.87917C10.6361 6.37145 11.3038 6.64801 12 6.64801C12.6962 6.64801 13.3639 6.37145 13.8562 5.87917C14.3484 5.38688 14.625 4.7192 14.625 4.02301C14.625 3.32682 14.3484 2.65914 13.8562 2.16685C13.3639 1.67457 12.6962 1.39801 12 1.39801C11.3038 1.39801 10.6361 1.67457 10.1438 2.16685C9.65156 2.65914 9.375 3.32682 9.375 4.02301V4.02301Z" stroke="#B1B5C4" stroke-width="1.5" stroke-linecap="round" stroke-linejoin="round"/>
</svg>
